Mirza-SemiBold - With Production Names.ufo
<glyph name="uni0662" format="1">
  <advance width="425"/>
  <unicode hex="0662"/>
  <outline>
    <contour>
      <point x="348" y="539" type="line"/>
      <point x="340" y="498"/>
      <point x="316" y="461"/>
      <point x="236" y="461" type="curve" smooth="yes"/>
      <point x="200" y="461"/>
      <point x="175" y="475"/>
      <point x="155" y="496" type="curve" smooth="yes"/>
      <point x="138" y="514"/>
      <point x="124" y="537"/>
      <point x="111" y="561" type="curve"/>
      <point x="81" y="525"/>
      <point x="65" y="500"/>
      <point x="47" y="462" type="curve"/>
      <point x="79" y="407"/>
      <point x="103" y="345"/>
      <point x="119" y="278" type="curve" smooth="yes"/>
      <point x="140" y="188"/>
      <point x="148" y="100"/>
      <point x="142" y="0" type="curve"/>
      <point x="188" y="0" type="line"/>
      <point x="203" y="69"/>
      <point x="213" y="130"/>
      <point x="216" y="189" type="curve" smooth="yes"/>
      <point x="217" y="234"/>
      <point x="214" y="300"/>
      <point x="204" y="343" type="curve"/>
      <point x="249" y="342"/>
      <point x="292" y="349"/>
      <point x="330" y="385" type="curve" smooth="yes"/>
      <point x="366" y="421"/>
      <point x="388" y="478"/>
      <point x="389" y="556" type="curve"/>
    </contour>
  </outline>
</glyph>
<glyph name="uni06D7" format="1">
  <advance width="0"/>
  <unicode hex="06D7"/>
  <outline>
    <contour>
      <point x="133" y="873"/>
      <point x="122" y="895"/>
      <point x="104" y="895" type="curve" smooth="yes"/>
      <point x="94" y="895"/>
      <point x="87" y="888"/>
      <point x="83" y="881" type="curve" smooth="yes"/>
      <point x="77" y="871"/>
      <point x="74" y="860"/>
      <point x="74" y="851" type="curve" smooth="yes"/>
      <point x="74" y="841"/>
      <point x="77" y="835"/>
      <point x="82" y="831" type="curve"/>
      <point x="86" y="827"/>
      <point x="93" y="824"/>
      <point x="102" y="824" type="curve" smooth="yes"/>
      <point x="107" y="824"/>
      <point x="115" y="825"/>
      <point x="119" y="828" type="curve"/>
      <point x="118" y="823"/>
      <point x="114" y="817"/>
      <point x="109" y="813" type="curve" smooth="yes"/>
      <point x="104" y="810"/>
      <point x="97" y="808"/>
      <point x="86" y="808" type="curve" smooth="yes"/>
      <point x="82" y="808"/>
      <point x="52" y="808"/>
      <point x="52" y="808" type="curve" smooth="yes"/>
      <point x="46" y="808"/>
      <point x="42" y="810"/>
      <point x="39" y="813" type="curve" smooth="yes"/>
      <point x="36" y="817"/>
      <point x="35" y="822"/>
      <point x="35" y="826" type="curve" smooth="yes"/>
      <point x="33" y="847"/>
      <point x="26" y="906"/>
      <point x="24" y="932" type="curve"/>
      <point x="15" y="923"/>
      <point x="9" y="915"/>
      <point x="2" y="903" type="curve"/>
      <point x="6" y="880"/>
      <point x="12" y="838"/>
      <point x="14" y="825" type="curve"/>
      <point x="14" y="821"/>
      <point x="13" y="817"/>
      <point x="11" y="813" type="curve" smooth="yes"/>
      <point x="7" y="810"/>
      <point x="2" y="808"/>
      <point x="-4" y="808" type="curve" smooth="yes"/>
      <point x="-40" y="808" type="line" smooth="yes"/>
      <point x="-51" y="808"/>
      <point x="-61" y="805"/>
      <point x="-68" y="801" type="curve" smooth="yes"/>
      <point x="-75" y="798"/>
      <point x="-78" y="794"/>
      <point x="-81" y="790" type="curve"/>
      <point x="-87" y="786"/>
      <point x="-95" y="781"/>
      <point x="-106" y="776" type="curve" smooth="yes"/>
      <point x="-115" y="772"/>
      <point x="-125" y="767"/>
      <point x="-133" y="760" type="curve" smooth="yes"/>
      <point x="-143" y="752"/>
      <point x="-149" y="743"/>
      <point x="-149" y="731" type="curve" smooth="yes"/>
      <point x="-149" y="726"/>
      <point x="-148" y="717"/>
      <point x="-137" y="710" type="curve" smooth="yes"/>
      <point x="-127" y="703"/>
      <point x="-113" y="700"/>
      <point x="-94" y="700" type="curve" smooth="yes"/>
      <point x="39" y="700" type="line"/>
      <point x="49" y="711"/>
      <point x="55" y="720"/>
      <point x="60" y="733" type="curve"/>
      <point x="-98" y="733" type="line" smooth="yes"/>
      <point x="-115" y="733"/>
      <point x="-124" y="734"/>
      <point x="-124" y="742" type="curve" smooth="yes"/>
      <point x="-124" y="745"/>
      <point x="-122" y="748"/>
      <point x="-119" y="749" type="curve"/>
      <point x="-113" y="751"/>
      <point x="-108" y="753"/>
      <point x="-104" y="755" type="curve" smooth="yes"/>
      <point x="-97" y="759"/>
      <point x="-89" y="765"/>
      <point x="-85" y="767" type="curve"/>
      <point x="-84" y="769"/>
      <point x="-78" y="775"/>
      <point x="-63" y="775" type="curve" smooth="yes"/>
      <point x="3" y="775" type="line" smooth="yes"/>
      <point x="21" y="775"/>
      <point x="29" y="786"/>
      <point x="30" y="791" type="curve"/>
      <point x="32" y="786"/>
      <point x="40" y="775"/>
      <point x="57" y="775" type="curve" smooth="yes"/>
      <point x="75" y="775" type="line" smooth="yes"/>
      <point x="91" y="775"/>
      <point x="104" y="777"/>
      <point x="114" y="785" type="curve" smooth="yes"/>
      <point x="122" y="792"/>
      <point x="128" y="801"/>
      <point x="132" y="815" type="curve" smooth="yes"/>
      <point x="135" y="826"/>
      <point x="136" y="839"/>
      <point x="135" y="851" type="curve" smooth="yes"/>
    </contour>
    <contour>
      <point x="115" y="850"/>
      <point x="110" y="848"/>
      <point x="103" y="848" type="curve" smooth="yes"/>
      <point x="90" y="848"/>
      <point x="88" y="855"/>
      <point x="88" y="859" type="curve" smooth="yes"/>
      <point x="88" y="864"/>
      <point x="92" y="872"/>
      <point x="101" y="872" type="curve" smooth="yes"/>
      <point x="112" y="872"/>
      <point x="116" y="859"/>
      <point x="117" y="853" type="curve"/>
    </contour>
    <contour>
      <point x="128" y="925"/>
      <point x="122" y="932"/>
      <point x="114" y="936" type="curve"/>
      <point x="112" y="933"/>
      <point x="106" y="927"/>
      <point x="102" y="923" type="curve"/>
      <point x="98" y="927"/>
      <point x="93" y="933"/>
      <point x="87" y="936" type="curve"/>
      <point x="85" y="933"/>
      <point x="76" y="924"/>
      <point x="72" y="920" type="curve"/>
      <point x="78" y="915"/>
      <point x="84" y="909"/>
      <point x="89" y="903" type="curve"/>
      <point x="94" y="907"/>
      <point x="99" y="913"/>
      <point x="102" y="917" type="curve"/>
      <point x="108" y="912"/>
      <point x="113" y="908"/>
      <point x="116" y="903" type="curve"/>
      <point x="122" y="908"/>
      <point x="129" y="915"/>
      <point x="132" y="919" type="curve"/>
    </contour>
    <contour>
      <point x="-6" y="936" type="move" name="top"/>
    </contour>
    <contour>
      <point x="-6" y="676" type="move" name="_top"/>
    </contour>
  </outline>
</glyph>
<glyph name="uni075A" format="1">
  <advance width="440"/>
  <unicode hex="075A"/>
  <outline>
    <component base="uni062F"/>
    <component base="circumflex.below" xOffset="193" yOffset="141"/>
    <contour>
      <point x="213" y="-266" type="move" name="bottom"/>
    </contour>
  </outline>
</glyph>
<glyph name="uni08E7" format="1">
  <advance width="0"/>
  <unicode hex="08E7"/>
  <outline>
    <contour>
      <point x="-55" y="789"/>
      <point x="-50" y="780"/>
      <point x="-31" y="766" type="curve"/>
      <point x="-34" y="758"/>
      <point x="-36" y="749"/>
      <point x="-35" y="741" type="curve" smooth="yes"/>
      <point x="-34" y="726"/>
      <point x="-28" y="717"/>
      <point x="-4" y="700" type="curve"/>
      <point x="2" y="714" type="line"/>
      <point x="-2" y="718"/>
      <point x="-8" y="723"/>
      <point x="-9" y="729" type="curve"/>
      <point x="-12" y="739"/>
      <point x="1" y="751"/>
      <point x="13" y="758" type="curve" smooth="yes"/>
      <point x="22" y="764"/>
      <point x="41" y="773"/>
      <point x="50" y="784" type="curve"/>
      <point x="56" y="792"/>
      <point x="60" y="804"/>
      <point x="59" y="815" type="curve" smooth="yes"/>
      <point x="59" y="831"/>
      <point x="55" y="839"/>
      <point x="34" y="855" type="curve"/>
      <point x="37" y="861"/>
      <point x="38" y="869"/>
      <point x="38" y="876" type="curve" smooth="yes"/>
      <point x="38" y="894"/>
      <point x="32" y="901"/>
      <point x="7" y="920" type="curve"/>
      <point x="1" y="906" type="line"/>
      <point x="5" y="901"/>
      <point x="11" y="896"/>
      <point x="12" y="892" type="curve"/>
      <point x="12" y="888"/>
      <point x="15" y="877"/>
      <point x="-13" y="860" type="curve" smooth="yes"/>
      <point x="-23" y="854"/>
      <point x="-38" y="847"/>
      <point x="-47" y="835" type="curve"/>
      <point x="-54" y="825"/>
      <point x="-58" y="814"/>
      <point x="-57" y="803" type="curve" smooth="yes"/>
    </contour>
    <contour>
      <point x="-33" y="801"/>
      <point x="-21" y="812"/>
      <point x="-8" y="820" type="curve" smooth="yes"/>
      <point x="0" y="825"/>
      <point x="15" y="833"/>
      <point x="24" y="842" type="curve"/>
      <point x="29" y="838"/>
      <point x="33" y="834"/>
      <point x="33" y="830" type="curve"/>
      <point x="33" y="826"/>
      <point x="36" y="815"/>
      <point x="9" y="799" type="curve" smooth="yes"/>
      <point x="0" y="794"/>
      <point x="-13" y="788"/>
      <point x="-21" y="778" type="curve"/>
      <point x="-25" y="782"/>
      <point x="-29" y="786"/>
      <point x="-29" y="791" type="curve"/>
    </contour>
    <contour>
      <point x="1" y="920" type="move" name="top"/>
    </contour>
    <contour>
      <point x="1" y="680" type="move" name="_top"/>
    </contour>
  </outline>
</glyph>
<glyph name="uniFB8F" format="1">
  <advance width="871"/>
  <unicode hex="FB8F"/>
  <outline>
    <contour>
      <point x="768" y="514"/>
      <point x="774" y="554"/>
      <point x="779" y="594" type="curve"/>
      <point x="665" y="541"/>
      <point x="545" y="478"/>
      <point x="478" y="421" type="curve"/>
      <point x="472" y="398"/>
      <point x="464" y="363"/>
      <point x="460" y="325" type="curve"/>
      <point x="505" y="275" type="line"/>
      <point x="513" y="289" type="line"/>
      <point x="524" y="276"/>
      <point x="537" y="261"/>
      <point x="548" y="248" type="curve"/>
      <point x="580" y="209"/>
      <point x="608" y="177"/>
      <point x="621" y="155" type="curve"/>
      <point x="616" y="149"/>
      <point x="599" y="124"/>
      <point x="562" y="122" type="curve" smooth="yes"/>
      <point x="511" y="119"/>
      <point x="468" y="120"/>
      <point x="415" y="120" type="curve" smooth="yes"/>
      <point x="375" y="120"/>
      <point x="287" y="120"/>
      <point x="239" y="126" type="curve" smooth="yes"/>
      <point x="201" y="132"/>
      <point x="155" y="148"/>
      <point x="131" y="176" type="curve" smooth="yes"/>
      <point x="118" y="192"/>
      <point x="108" y="214"/>
      <point x="105" y="245" type="curve"/>
      <point x="69" y="255" type="line"/>
      <point x="60" y="193"/>
      <point x="60" y="148"/>
      <point x="77" y="108" type="curve" smooth="yes"/>
      <point x="99" y="53"/>
      <point x="151" y="13"/>
      <point x="238" y="-2" type="curve" smooth="yes"/>
      <point x="274" y="-8"/>
      <point x="323" y="-9"/>
      <point x="413" y="-8" type="curve" smooth="yes"/>
      <point x="465" y="-7"/>
      <point x="513" y="-9"/>
      <point x="570" y="-6" type="curve" smooth="yes"/>
      <point x="647" y="-3"/>
      <point x="677" y="56"/>
      <point x="678" y="86" type="curve"/>
      <point x="691" y="55"/>
      <point x="733" y="0"/>
      <point x="823" y="0" type="curve" smooth="yes"/>
      <point x="871" y="0" type="line"/>
      <point x="871" y="125" type="line"/>
      <point x="822" y="125" type="line" smooth="yes"/>
      <point x="768" y="125"/>
      <point x="740" y="158"/>
      <point x="712" y="190" type="curve" smooth="yes"/>
      <point x="691" y="216"/>
      <point x="660" y="255"/>
      <point x="629" y="289" type="curve" smooth="yes"/>
      <point x="598" y="323"/>
      <point x="568" y="354"/>
      <point x="553" y="370" type="curve"/>
      <point x="626" y="414"/>
      <point x="686" y="444"/>
      <point x="757" y="473" type="curve"/>
    </contour>
    <contour>
      <point x="601" y="558" type="move" name="top"/>
    </contour>
    <contour>
      <point x="388" y="-42" type="move" name="bottom"/>
    </contour>
  </outline>
</glyph>
<glyph name="uniFC18" format="1">
  <advance width="711"/>
  <unicode hex="FC18"/>
  <outline>
    <contour>
      <point x="564" y="290"/>
      <point x="494" y="313"/>
      <point x="434" y="345" type="curve" smooth="yes"/>
      <point x="401" y="362"/>
      <point x="367" y="377"/>
      <point x="330" y="377" type="curve" smooth="yes"/>
      <point x="310" y="377"/>
      <point x="291" y="373"/>
      <point x="274" y="364" type="curve" smooth="yes"/>
      <point x="245" y="349"/>
      <point x="227" y="326"/>
      <point x="206" y="290" type="curve"/>
      <point x="226" y="263" type="line"/>
      <point x="247" y="282"/>
      <point x="262" y="291"/>
      <point x="294" y="291" type="curve" smooth="yes"/>
      <point x="324" y="291"/>
      <point x="355" y="270"/>
      <point x="392" y="250" type="curve"/>
      <point x="347" y="247"/>
      <point x="306" y="241"/>
      <point x="269" y="227" type="curve" smooth="yes"/>
      <point x="236" y="215"/>
      <point x="210" y="199"/>
      <point x="181" y="176" type="curve"/>
      <point x="172" y="165"/>
      <point x="160" y="148"/>
      <point x="153" y="125" type="curve"/>
      <point x="120" y="112"/>
      <point x="94" y="92"/>
      <point x="75" y="66" type="curve" smooth="yes"/>
      <point x="51" y="32"/>
      <point x="42" y="-11"/>
      <point x="53" y="-63" type="curve" smooth="yes"/>
      <point x="61" y="-115"/>
      <point x="71" y="-179"/>
      <point x="76" y="-220" type="curve" smooth="yes"/>
      <point x="86" y="-301"/>
      <point x="92" y="-352"/>
      <point x="96" y="-401" type="curve"/>
      <point x="144" y="-383" type="line"/>
      <point x="146" y="-307"/>
      <point x="142" y="-217"/>
      <point x="136" y="-161" type="curve" smooth="yes"/>
      <point x="133" y="-123"/>
      <point x="124" y="-53"/>
      <point x="115" y="7" type="curve"/>
      <point x="129" y="24"/>
      <point x="168" y="38"/>
      <point x="226" y="36" type="curve" smooth="yes"/>
      <point x="265" y="35"/>
      <point x="290" y="28"/>
      <point x="330" y="15" type="curve"/>
      <point x="355" y="49"/>
      <point x="362" y="65"/>
      <point x="380" y="112" type="curve"/>
      <point x="348" y="141"/>
      <point x="300" y="159"/>
      <point x="276" y="167" type="curve"/>
      <point x="318" y="186"/>
      <point x="383" y="202"/>
      <point x="442" y="202" type="curve" smooth="yes"/>
      <point x="520" y="202"/>
      <point x="576" y="187"/>
      <point x="591" y="183" type="curve"/>
      <point x="621" y="214"/>
      <point x="632" y="230"/>
      <point x="658" y="276" type="curve"/>
    </contour>
    <contour>
      <point x="356" y="0" type="move" name="caret_1"/>
    </contour>
    <contour>
      <point x="412" y="-4" type="move" name="bottom_1"/>
    </contour>
    <contour>
      <point x="350" y="407" type="move" name="top_1"/>
    </contour>
    <contour>
      <point x="77" y="265" type="move" name="top_2"/>
    </contour>
    <contour>
      <point x="122" y="-421" type="move" name="bottom_2"/>
    </contour>
  </outline>
</glyph>
<glyph name="uniFC21" format="1">
  <advance width="890"/>
  <unicode hex="FC21"/>
  <outline>
    <contour>
      <point x="837" y="270"/>
      <point x="824" y="300"/>
      <point x="795" y="322" type="curve" smooth="yes"/>
      <point x="772" y="341"/>
      <point x="741" y="352"/>
      <point x="714" y="352" type="curve" smooth="yes"/>
      <point x="654" y="352"/>
      <point x="587" y="296"/>
      <point x="537" y="244" type="curve" smooth="yes"/>
      <point x="503" y="207"/>
      <point x="473" y="166"/>
      <point x="448" y="129" type="curve"/>
      <point x="430" y="135"/>
      <point x="419" y="153"/>
      <point x="398" y="176" type="curve" smooth="yes"/>
      <point x="376" y="200"/>
      <point x="356" y="211"/>
      <point x="325" y="210" type="curve" smooth="yes"/>
      <point x="303" y="210"/>
      <point x="282" y="203"/>
      <point x="262" y="191" type="curve" smooth="yes"/>
      <point x="241" y="178"/>
      <point x="222" y="159"/>
      <point x="206" y="137" type="curve" smooth="yes"/>
      <point x="196" y="123"/>
      <point x="185" y="104"/>
      <point x="177" y="84" type="curve" smooth="yes"/>
      <point x="169" y="65"/>
      <point x="164" y="46"/>
      <point x="164" y="31" type="curve"/>
      <point x="126" y="13"/>
      <point x="99" y="-13"/>
      <point x="82" y="-41" type="curve" smooth="yes"/>
      <point x="65" y="-72"/>
      <point x="54" y="-112"/>
      <point x="61" y="-159" type="curve" smooth="yes"/>
      <point x="91" y="-346"/>
      <point x="101" y="-432"/>
      <point x="107" y="-497" type="curve"/>
      <point x="159" y="-476" type="line"/>
      <point x="157" y="-407"/>
      <point x="150" y="-310"/>
      <point x="145" y="-252" type="curve" smooth="yes"/>
      <point x="139" y="-195"/>
      <point x="133" y="-145"/>
      <point x="125" y="-91" type="curve"/>
      <point x="142" y="-76"/>
      <point x="168" y="-63"/>
      <point x="226" y="-63" type="curve" smooth="yes"/>
      <point x="266" y="-63"/>
      <point x="296" y="-70"/>
      <point x="333" y="-81" type="curve"/>
      <point x="356" y="-51"/>
      <point x="369" y="-28"/>
      <point x="381" y="10" type="curve"/>
      <point x="358" y="33"/>
      <point x="297" y="70"/>
      <point x="243" y="80" type="curve"/>
      <point x="259" y="99"/>
      <point x="290" y="117"/>
      <point x="323" y="117" type="curve" smooth="yes"/>
      <point x="370" y="117"/>
      <point x="398" y="87"/>
      <point x="426" y="58" type="curve" smooth="yes"/>
      <point x="450" y="33"/>
      <point x="476" y="9"/>
      <point x="541" y="9" type="curve"/>
      <point x="614" y="12"/>
      <point x="691" y="42"/>
      <point x="739" y="78" type="curve" smooth="yes"/>
      <point x="766" y="99"/>
      <point x="792" y="128"/>
      <point x="809" y="155" type="curve" smooth="yes"/>
      <point x="827" y="185"/>
      <point x="837" y="219"/>
      <point x="837" y="243" type="curve" smooth="yes"/>
    </contour>
    <contour>
      <point x="745" y="174"/>
      <point x="729" y="160"/>
      <point x="703" y="148" type="curve" smooth="yes"/>
      <point x="675" y="136"/>
      <point x="643" y="129"/>
      <point x="607" y="129" type="curve" smooth="yes"/>
      <point x="509" y="129" type="line"/>
      <point x="525" y="152"/>
      <point x="545" y="176"/>
      <point x="562" y="193" type="curve" smooth="yes"/>
      <point x="595" y="228"/>
      <point x="630" y="252"/>
      <point x="672" y="252" type="curve" smooth="yes"/>
      <point x="703" y="252"/>
      <point x="722" y="238"/>
      <point x="734" y="226" type="curve"/>
      <point x="746" y="213"/>
      <point x="752" y="198"/>
      <point x="756" y="186" type="curve"/>
    </contour>
    <contour>
      <point x="447" y="0" type="move" name="caret_1"/>
    </contour>
    <contour>
      <point x="597" y="-31" type="move" name="bottom_1"/>
    </contour>
    <contour>
      <point x="693" y="382" type="move" name="top_1"/>
    </contour>
    <contour>
      <point x="187" y="227" type="move" name="top_2"/>
    </contour>
    <contour>
      <point x="135" y="-517" type="move" name="bottom_2"/>
    </contour>
  </outline>
</glyph>
<glyph name="uniFC2A" format="1">
  <advance width="612"/>
  <unicode hex="FC2A"/>
  <outline>
    <contour>
      <point x="504" y="355"/>
      <point x="424" y="335"/>
      <point x="378" y="320" type="curve"/>
      <point x="344" y="337"/>
      <point x="310" y="366"/>
      <point x="301" y="409" type="curve"/>
      <point x="321" y="422"/>
      <point x="352" y="437"/>
      <point x="399" y="437" type="curve" smooth="yes"/>
      <point x="431" y="437"/>
      <point x="457" y="430"/>
      <point x="480" y="421" type="curve"/>
      <point x="517" y="455" type="line"/>
      <point x="486" y="501"/>
      <point x="441" y="529"/>
      <point x="394" y="529" type="curve" smooth="yes"/>
      <point x="352" y="529"/>
      <point x="313" y="509"/>
      <point x="282" y="480" type="curve" smooth="yes"/>
      <point x="249" y="450"/>
      <point x="226" y="409"/>
      <point x="226" y="364" type="curve" smooth="yes"/>
      <point x="226" y="330"/>
      <point x="239" y="291"/>
      <point x="279" y="262" type="curve"/>
      <point x="251" y="244"/>
      <point x="224" y="221"/>
      <point x="202" y="197" type="curve" smooth="yes"/>
      <point x="182" y="175"/>
      <point x="167" y="150"/>
      <point x="163" y="127" type="curve"/>
      <point x="128" y="110"/>
      <point x="103" y="93"/>
      <point x="84" y="63" type="curve" smooth="yes"/>
      <point x="61" y="30"/>
      <point x="52" y="-7"/>
      <point x="63" y="-63" type="curve" smooth="yes"/>
      <point x="72" y="-114"/>
      <point x="80" y="-179"/>
      <point x="87" y="-219" type="curve" smooth="yes"/>
      <point x="97" y="-287"/>
      <point x="102" y="-352"/>
      <point x="107" y="-400" type="curve"/>
      <point x="155" y="-382" type="line"/>
      <point x="156" y="-309"/>
      <point x="153" y="-216"/>
      <point x="147" y="-160" type="curve" smooth="yes"/>
      <point x="143" y="-122"/>
      <point x="134" y="-52"/>
      <point x="126" y="8" type="curve"/>
      <point x="140" y="25"/>
      <point x="180" y="36"/>
      <point x="239" y="36" type="curve" smooth="yes"/>
      <point x="279" y="36"/>
      <point x="303" y="29"/>
      <point x="341" y="18" type="curve"/>
      <point x="366" y="53"/>
      <point x="377" y="78"/>
      <point x="393" y="118" type="curve"/>
      <point x="363" y="146"/>
      <point x="309" y="168"/>
      <point x="276" y="176" type="curve"/>
      <point x="343" y="230"/>
      <point x="445" y="255"/>
      <point x="524" y="275" type="curve"/>
      <point x="540" y="305"/>
      <point x="549" y="334"/>
      <point x="559" y="366" type="curve"/>
    </contour>
    <contour>
      <point x="314" y="1" type="move" name="caret_1"/>
    </contour>
    <contour>
      <point x="332" y="-26" type="move" name="bottom_1"/>
    </contour>
    <contour>
      <point x="394" y="559" type="move" name="top_1"/>
    </contour>
    <contour>
      <point x="96" y="310" type="move" name="top_2"/>
    </contour>
    <contour>
      <point x="135" y="-421" type="move" name="bottom_2"/>
    </contour>
  </outline>
</glyph>
<glyph name="uniFC3D" format="1">
  <advance width="671"/>
  <unicode hex="FC3D"/>
  <outline>
    <contour>
      <point x="61" y="-108"/>
      <point x="66" y="-139"/>
      <point x="77" y="-167" type="curve" smooth="yes"/>
      <point x="92" y="-204"/>
      <point x="118" y="-232"/>
      <point x="156" y="-252" type="curve" smooth="yes"/>
      <point x="193" y="-271"/>
      <point x="238" y="-281"/>
      <point x="288" y="-281" type="curve" smooth="yes"/>
      <point x="345" y="-281"/>
      <point x="404" y="-270"/>
      <point x="456" y="-247" type="curve" smooth="yes"/>
      <point x="508" y="-226"/>
      <point x="557" y="-190"/>
      <point x="587" y="-139" type="curve" smooth="yes"/>
      <point x="603" y="-114"/>
      <point x="615" y="-83"/>
      <point x="615" y="-53" type="curve" smooth="yes"/>
      <point x="615" y="-4"/>
      <point x="582" y="30"/>
      <point x="537" y="47" type="curve"/>
      <point x="560" y="73"/>
      <point x="575" y="109"/>
      <point x="574" y="153" type="curve"/>
      <point x="573" y="200"/>
      <point x="555" y="243"/>
      <point x="532" y="281" type="curve" smooth="yes"/>
      <point x="511" y="316"/>
      <point x="479" y="350"/>
      <point x="439" y="381" type="curve"/>
      <point x="499" y="414"/>
      <point x="572" y="449"/>
      <point x="629" y="473" type="curve"/>
      <point x="640" y="517"/>
      <point x="645" y="551"/>
      <point x="650" y="595" type="curve"/>
      <point x="546" y="546"/>
      <point x="425" y="481"/>
      <point x="350" y="421" type="curve"/>
      <point x="342" y="390"/>
      <point x="337" y="368"/>
      <point x="332" y="326" type="curve"/>
      <point x="377" y="276" type="line"/>
      <point x="387" y="298" type="line"/>
      <point x="438" y="259"/>
      <point x="511" y="197"/>
      <point x="511" y="130" type="curve"/>
      <point x="488" y="103"/>
      <point x="437" y="84"/>
      <point x="390" y="80" type="curve"/>
      <point x="385" y="56"/>
      <point x="382" y="34"/>
      <point x="379" y="-2" type="curve"/>
      <point x="419" y="-5"/>
      <point x="453" y="-10"/>
      <point x="483" y="-17" type="curve" smooth="yes"/>
      <point x="521" y="-27"/>
      <point x="542" y="-41"/>
      <point x="543" y="-55" type="curve"/>
      <point x="531" y="-85"/>
      <point x="485" y="-108"/>
      <point x="440" y="-121" type="curve" smooth="yes"/>
      <point x="402" y="-132"/>
      <point x="351" y="-143"/>
      <point x="296" y="-143" type="curve" smooth="yes"/>
      <point x="223" y="-143"/>
      <point x="176" y="-123"/>
      <point x="150" y="-91" type="curve" smooth="yes"/>
      <point x="123" y="-60"/>
      <point x="121" y="-7"/>
      <point x="134" y="54" type="curve"/>
      <point x="99" y="67" type="line"/>
      <point x="78" y="14"/>
      <point x="67" y="-35"/>
      <point x="64" y="-72" type="curve" smooth="yes"/>
    </contour>
    <contour>
      <point x="322" y="0" type="move" name="caret_1"/>
    </contour>
    <contour>
      <point x="529" y="-262" type="move" name="bottom_1"/>
    </contour>
    <contour>
      <point x="451" y="550" type="move" name="top_1"/>
    </contour>
    <contour>
      <point x="237" y="66" type="move" name="top_2"/>
    </contour>
    <contour>
      <point x="288" y="-314" type="move" name="bottom_2"/>
    </contour>
  </outline>
</glyph>
<glyph name="uniFC53" format="1">
  <advance width="919"/>
  <unicode hex="FC53"/>
  <outline>
    <contour>
      <point x="866" y="243"/>
      <point x="850" y="279"/>
      <point x="828" y="309" type="curve" smooth="yes"/>
      <point x="805" y="341"/>
      <point x="774" y="366"/>
      <point x="734" y="390" type="curve" smooth="yes"/>
      <point x="715" y="401"/>
      <point x="694" y="412"/>
      <point x="674" y="422" type="curve" smooth="yes"/>
      <point x="646" y="436"/>
      <point x="636" y="441"/>
      <point x="616" y="455" type="curve"/>
      <point x="608" y="440"/>
      <point x="598" y="425"/>
      <point x="590" y="410" type="curve" smooth="yes"/>
      <point x="577" y="385"/>
      <point x="578" y="369"/>
      <point x="596" y="358" type="curve" smooth="yes"/>
      <point x="607" y="352" type="line"/>
      <point x="580" y="345"/>
      <point x="556" y="326"/>
      <point x="540" y="304" type="curve" smooth="yes"/>
      <point x="523" y="279"/>
      <point x="513" y="248"/>
      <point x="514" y="219" type="curve" smooth="yes"/>
      <point x="516" y="182"/>
      <point x="534" y="151"/>
      <point x="571" y="134" type="curve"/>
      <point x="552" y="120"/>
      <point x="526" y="110"/>
      <point x="505" y="102" type="curve" smooth="yes"/>
      <point x="488" y="95"/>
      <point x="471" y="88"/>
      <point x="457" y="81" type="curve" smooth="yes"/>
      <point x="432" y="67"/>
      <point x="431" y="41"/>
      <point x="424" y="-2" type="curve"/>
      <point x="429" y="-3"/>
      <point x="459" y="-9"/>
      <point x="482" y="-16" type="curve" smooth="yes"/>
      <point x="515" y="-27"/>
      <point x="543" y="-42"/>
      <point x="543" y="-58" type="curve" smooth="yes"/>
      <point x="543" y="-82"/>
      <point x="504" y="-102"/>
      <point x="448" y="-120" type="curve" smooth="yes"/>
      <point x="416" y="-131"/>
      <point x="357" y="-144"/>
      <point x="297" y="-144" type="curve" smooth="yes"/>
      <point x="229" y="-144"/>
      <point x="177" y="-127"/>
      <point x="150" y="-94" type="curve" smooth="yes"/>
      <point x="121" y="-59"/>
      <point x="122" y="-2"/>
      <point x="134" y="52" type="curve"/>
      <point x="99" y="64" type="line"/>
      <point x="83" y="25"/>
      <point x="68" y="-22"/>
      <point x="64" y="-68" type="curve" smooth="yes"/>
      <point x="61" y="-101"/>
      <point x="64" y="-137"/>
      <point x="77" y="-170" type="curve" smooth="yes"/>
      <point x="92" y="-205"/>
      <point x="117" y="-233"/>
      <point x="156" y="-254" type="curve" smooth="yes"/>
      <point x="192" y="-273"/>
      <point x="237" y="-283"/>
      <point x="287" y="-283" type="curve" smooth="yes"/>
      <point x="349" y="-283"/>
      <point x="422" y="-268"/>
      <point x="477" y="-239" type="curve" smooth="yes"/>
      <point x="530" y="-212"/>
      <point x="571" y="-172"/>
      <point x="593" y="-131" type="curve" smooth="yes"/>
      <point x="610" y="-100"/>
      <point x="616" y="-71"/>
      <point x="617" y="-49" type="curve"/>
      <point x="617" y="-4"/>
      <point x="594" y="21"/>
      <point x="558" y="38" type="curve"/>
      <point x="593" y="52"/>
      <point x="622" y="74"/>
      <point x="654" y="106" type="curve"/>
      <point x="689" y="96"/>
      <point x="738" y="74"/>
      <point x="774" y="54" type="curve"/>
      <point x="808" y="89"/>
      <point x="817" y="99"/>
      <point x="827" y="110" type="curve" smooth="yes"/>
      <point x="852" y="138"/>
      <point x="865" y="168"/>
      <point x="866" y="203" type="curve" smooth="yes"/>
    </contour>
    <contour>
      <point x="686" y="252"/>
      <point x="681" y="238"/>
      <point x="666" y="227" type="curve"/>
      <point x="651" y="218"/>
      <point x="638" y="215"/>
      <point x="632" y="215" type="curve" smooth="yes"/>
      <point x="625" y="215"/>
      <point x="611" y="217"/>
      <point x="589" y="229" type="curve"/>
      <point x="574" y="237"/>
      <point x="564" y="248"/>
      <point x="562" y="255" type="curve"/>
      <point x="563" y="260"/>
      <point x="572" y="274"/>
      <point x="594" y="293" type="curve"/>
      <point x="619" y="315"/>
      <point x="634" y="321"/>
      <point x="643" y="321" type="curve" smooth="yes"/>
      <point x="655" y="321"/>
      <point x="665" y="309"/>
      <point x="671" y="295" type="curve"/>
      <point x="681" y="279"/>
      <point x="686" y="263"/>
      <point x="686" y="257" type="curve" smooth="yes"/>
    </contour>
    <contour>
      <point x="757" y="182"/>
      <point x="733" y="187"/>
      <point x="704" y="195" type="curve"/>
      <point x="714" y="209"/>
      <point x="721" y="224"/>
      <point x="724" y="239" type="curve" smooth="yes"/>
      <point x="729" y="261"/>
      <point x="727" y="283"/>
      <point x="719" y="304" type="curve"/>
      <point x="746" y="286"/>
      <point x="766" y="268"/>
      <point x="779" y="245" type="curve" smooth="yes"/>
      <point x="793" y="223"/>
      <point x="799" y="198"/>
      <point x="799" y="170" type="curve"/>
    </contour>
    <contour>
      <point x="466" y="0" type="move" name="caret_1"/>
    </contour>
    <contour>
      <point x="754" y="-26" type="move" name="bottom_1"/>
    </contour>
    <contour>
      <point x="616" y="485" type="move" name="top_1"/>
    </contour>
    <contour>
      <point x="279" y="59" type="move" name="top_2"/>
    </contour>
    <contour>
      <point x="303" y="-313" type="move" name="bottom_2"/>
    </contour>
  </outline>
</glyph>
<glyph name="uniFC81" format="1">
  <advance width="901"/>
  <unicode hex="FC81"/>
  <outline>
    <contour>
      <point x="851" y="125" type="line" smooth="yes"/>
      <point x="794" y="125"/>
      <point x="768" y="159"/>
      <point x="741" y="193" type="curve" smooth="yes"/>
      <point x="715" y="224"/>
      <point x="687" y="259"/>
      <point x="658" y="291" type="curve" smooth="yes"/>
      <point x="635" y="316"/>
      <point x="605" y="348"/>
      <point x="582" y="371" type="curve"/>
      <point x="646" y="409"/>
      <point x="723" y="448"/>
      <point x="787" y="473" type="curve"/>
      <point x="797" y="516"/>
      <point x="804" y="551"/>
      <point x="808" y="595" type="curve"/>
      <point x="705" y="546"/>
      <point x="557" y="471"/>
      <point x="479" y="405" type="curve"/>
      <point x="460" y="606" type="line"/>
      <point x="438" y="586"/>
      <point x="409" y="549"/>
      <point x="376" y="499" type="curve"/>
      <point x="378" y="485"/>
      <point x="445" y="17"/>
      <point x="449" y="-16" type="curve" smooth="yes"/>
      <point x="455" y="-63"/>
      <point x="454" y="-92"/>
      <point x="418" y="-116" type="curve" smooth="yes"/>
      <point x="391" y="-133"/>
      <point x="351" y="-143"/>
      <point x="294" y="-143" type="curve" smooth="yes"/>
      <point x="260" y="-143"/>
      <point x="232" y="-138"/>
      <point x="207" y="-129" type="curve" smooth="yes"/>
      <point x="176" y="-119"/>
      <point x="157" y="-103"/>
      <point x="145" y="-83" type="curve" smooth="yes"/>
      <point x="125" y="-52"/>
      <point x="123" y="-14"/>
      <point x="134" y="42" type="curve"/>
      <point x="99" y="55" type="line"/>
      <point x="79" y="5"/>
      <point x="67" y="-33"/>
      <point x="64" y="-74" type="curve" smooth="yes"/>
      <point x="62" y="-103"/>
      <point x="63" y="-134"/>
      <point x="77" y="-169" type="curve" smooth="yes"/>
      <point x="92" y="-204"/>
      <point x="116" y="-233"/>
      <point x="156" y="-254" type="curve" smooth="yes"/>
      <point x="192" y="-273"/>
      <point x="239" y="-283"/>
      <point x="291" y="-283" type="curve" smooth="yes"/>
      <point x="364" y="-283"/>
      <point x="422" y="-261"/>
      <point x="461" y="-218" type="curve" smooth="yes"/>
      <point x="485" y="-192"/>
      <point x="502" y="-157"/>
      <point x="510" y="-121" type="curve" smooth="yes"/>
      <point x="516" y="-96"/>
      <point x="520" y="-65"/>
      <point x="519" y="-33" type="curve" smooth="yes"/>
      <point x="518" y="-15"/>
      <point x="518" y="-6"/>
      <point x="515" y="29" type="curve"/>
      <point x="530" y="9"/>
      <point x="555" y="0"/>
      <point x="601" y="0" type="curve" smooth="yes"/>
      <point x="673" y="0"/>
      <point x="706" y="57"/>
      <point x="708" y="88" type="curve"/>
      <point x="721" y="57"/>
      <point x="763" y="0"/>
      <point x="852" y="0" type="curve" smooth="yes"/>
      <point x="901" y="0" type="line"/>
      <point x="901" y="125" type="line"/>
    </contour>
    <contour>
      <point x="640" y="134"/>
      <point x="617" y="121"/>
      <point x="581" y="121" type="curve"/>
      <point x="554" y="121"/>
      <point x="536" y="126"/>
      <point x="524" y="140" type="curve" smooth="yes"/>
      <point x="513" y="151"/>
      <point x="507" y="169"/>
      <point x="504" y="193" type="curve" smooth="yes"/>
      <point x="501" y="224"/>
      <point x="497" y="250"/>
      <point x="488" y="344" type="curve"/>
      <point x="516" y="317"/>
      <point x="561" y="270"/>
      <point x="579" y="248" type="curve" smooth="yes"/>
      <point x="604" y="220"/>
      <point x="632" y="190"/>
      <point x="654" y="155" type="curve"/>
    </contour>
    <contour>
      <point x="451" y="0" type="move" name="caret_1"/>
    </contour>
    <contour>
      <point x="658" y="-28" type="move" name="bottom_1"/>
    </contour>
    <contour>
      <point x="670" y="585" type="move" name="top_1"/>
    </contour>
    <contour>
      <point x="336" y="585" type="move" name="top_2"/>
    </contour>
    <contour>
      <point x="291" y="-313" type="move" name="bottom_2"/>
    </contour>
  </outline>
</glyph>
<glyph name="uniFC83" format="1">
  <advance width="771"/>
  <unicode hex="FC83"/>
  <outline>
    <contour>
      <point x="721" y="125" type="line" smooth="yes"/>
      <point x="664" y="125"/>
      <point x="637" y="159"/>
      <point x="611" y="193" type="curve" smooth="yes"/>
      <point x="585" y="224"/>
      <point x="556" y="259"/>
      <point x="528" y="291" type="curve" smooth="yes"/>
      <point x="505" y="316"/>
      <point x="475" y="348"/>
      <point x="452" y="371" type="curve"/>
      <point x="515" y="409"/>
      <point x="593" y="448"/>
      <point x="656" y="473" type="curve"/>
      <point x="667" y="516"/>
      <point x="673" y="551"/>
      <point x="678" y="595" type="curve"/>
      <point x="573" y="545"/>
      <point x="447" y="480"/>
      <point x="377" y="421" type="curve"/>
      <point x="371" y="394"/>
      <point x="368" y="371"/>
      <point x="365" y="339" type="curve"/>
      <point x="390" y="314"/>
      <point x="425" y="276"/>
      <point x="446" y="251" type="curve"/>
      <point x="467" y="226"/>
      <point x="499" y="190"/>
      <point x="539" y="136" type="curve"/>
      <point x="523" y="105"/>
      <point x="496" y="86"/>
      <point x="473" y="73" type="curve" smooth="yes"/>
      <point x="445" y="58"/>
      <point x="415" y="52"/>
      <point x="390" y="50" type="curve"/>
      <point x="385" y="26"/>
      <point x="382" y="4"/>
      <point x="379" y="-32" type="curve"/>
      <point x="419" y="-35"/>
      <point x="453" y="-40"/>
      <point x="483" y="-47" type="curve" smooth="yes"/>
      <point x="521" y="-57"/>
      <point x="542" y="-71"/>
      <point x="543" y="-85" type="curve"/>
      <point x="534" y="-113"/>
      <point x="490" y="-136"/>
      <point x="447" y="-149" type="curve" smooth="yes"/>
      <point x="407" y="-161"/>
      <point x="354" y="-173"/>
      <point x="296" y="-173" type="curve" smooth="yes"/>
      <point x="223" y="-173"/>
      <point x="176" y="-153"/>
      <point x="150" y="-121" type="curve" smooth="yes"/>
      <point x="123" y="-90"/>
      <point x="121" y="-37"/>
      <point x="134" y="24" type="curve"/>
      <point x="106" y="37" type="line"/>
      <point x="78" y="-16"/>
      <point x="67" y="-65"/>
      <point x="64" y="-102" type="curve" smooth="yes"/>
      <point x="61" y="-138"/>
      <point x="66" y="-169"/>
      <point x="77" y="-197" type="curve" smooth="yes"/>
      <point x="92" y="-234"/>
      <point x="118" y="-262"/>
      <point x="156" y="-282" type="curve" smooth="yes"/>
      <point x="193" y="-301"/>
      <point x="238" y="-311"/>
      <point x="288" y="-311" type="curve" smooth="yes"/>
      <point x="349" y="-311"/>
      <point x="411" y="-298"/>
      <point x="464" y="-273" type="curve" smooth="yes"/>
      <point x="507" y="-254"/>
      <point x="548" y="-224"/>
      <point x="574" y="-188" type="curve" smooth="yes"/>
      <point x="595" y="-159"/>
      <point x="608" y="-123"/>
      <point x="608" y="-83" type="curve" smooth="yes"/>
      <point x="608" y="-34"/>
      <point x="575" y="0"/>
      <point x="530" y="17" type="curve"/>
      <point x="550" y="29"/>
      <point x="572" y="60"/>
      <point x="577" y="87" type="curve"/>
      <point x="597" y="62"/>
      <point x="617" y="42"/>
      <point x="638" y="27" type="curve" smooth="yes"/>
      <point x="664" y="9"/>
      <point x="693" y="0"/>
      <point x="731" y="0" type="curve" smooth="yes"/>
      <point x="770" y="0" type="line"/>
      <point x="770" y="125" type="line"/>
    </contour>
    <contour>
      <point x="392" y="0" type="move" name="caret_1"/>
    </contour>
    <contour>
      <point x="558" y="-289" type="move" name="bottom_1"/>
    </contour>
    <contour>
      <point x="487" y="569" type="move" name="top_1"/>
    </contour>
    <contour>
      <point x="249" y="31" type="move" name="top_2"/>
    </contour>
    <contour>
      <point x="295" y="-334" type="move" name="bottom_2"/>
    </contour>
  </outline>
</glyph>
<glyph name="uniFCAA" format="1">
  <advance width="656"/>
  <unicode hex="FCAA"/>
  <outline>
    <contour>
      <point x="498" y="316"/>
      <point x="425" y="343"/>
      <point x="369" y="373" type="curve" smooth="yes"/>
      <point x="341" y="388"/>
      <point x="320" y="397"/>
      <point x="294" y="403" type="curve"/>
      <point x="262" y="409"/>
      <point x="234" y="405"/>
      <point x="209" y="393" type="curve" smooth="yes"/>
      <point x="180" y="378"/>
      <point x="161" y="353"/>
      <point x="143" y="322" type="curve"/>
      <point x="162" y="290" type="line"/>
      <point x="175" y="313"/>
      <point x="195" y="326"/>
      <point x="226" y="325" type="curve" smooth="yes"/>
      <point x="259" y="324"/>
      <point x="288" y="305"/>
      <point x="323" y="284" type="curve"/>
      <point x="279" y="281"/>
      <point x="246" y="273"/>
      <point x="211" y="254" type="curve" smooth="yes"/>
      <point x="174" y="234"/>
      <point x="147" y="205"/>
      <point x="118" y="171" type="curve"/>
      <point x="97" y="150"/>
      <point x="78" y="125"/>
      <point x="45" y="125" type="curve" smooth="yes"/>
      <point x="-14" y="125" type="line" smooth="yes"/>
      <point x="-53" y="125"/>
      <point x="-76" y="88"/>
      <point x="-76" y="62" type="curve" smooth="yes"/>
      <point x="-76" y="38"/>
      <point x="-57" y="0"/>
      <point x="-14" y="0" type="curve" smooth="yes"/>
      <point x="16" y="0" type="line" smooth="yes"/>
      <point x="56" y="0"/>
      <point x="83" y="13"/>
      <point x="98" y="46" type="curve"/>
      <point x="145" y="9"/>
      <point x="205" y="-9"/>
      <point x="249" y="-11" type="curve"/>
      <point x="278" y="12"/>
      <point x="301" y="53"/>
      <point x="301" y="93" type="curve" smooth="yes"/>
      <point x="301" y="126"/>
      <point x="290" y="162"/>
      <point x="254" y="188" type="curve"/>
      <point x="282" y="216"/>
      <point x="324" y="227"/>
      <point x="370" y="231" type="curve" smooth="yes"/>
      <point x="422" y="235"/>
      <point x="479" y="228"/>
      <point x="527" y="212" type="curve"/>
      <point x="559" y="247"/>
      <point x="571" y="268"/>
      <point x="593" y="305" type="curve"/>
    </contour>
    <contour>
      <point x="205" y="87"/>
      <point x="174" y="97"/>
      <point x="135" y="123" type="curve"/>
      <point x="145" y="139"/>
      <point x="162" y="154"/>
      <point x="185" y="154" type="curve" smooth="yes"/>
      <point x="234" y="154"/>
      <point x="252" y="103"/>
      <point x="248" y="78" type="curve"/>
    </contour>
    <contour>
      <point x="323" y="0" type="move" name="caret_1"/>
    </contour>
    <contour>
      <point x="443" y="143" type="move" name="bottom_1"/>
    </contour>
    <contour>
      <point x="313" y="433" type="move" name="top_1"/>
    </contour>
    <contour>
      <point x="46" y="314" type="move" name="top_2"/>
    </contour>
    <contour>
      <point x="135" y="-34" type="move" name="bottom_2"/>
    </contour>
  </outline>
</glyph>
<glyph name="uniFCB0" format="1">
  <advance width="731"/>
  <unicode hex="FCB0"/>
  <outline>
    <contour>
      <point x="606" y="388"/>
      <point x="591" y="367"/>
      <point x="574" y="340" type="curve"/>
      <point x="621" y="274" type="line"/>
      <point x="607" y="246"/>
      <point x="594" y="236"/>
      <point x="564" y="236" type="curve" smooth="yes"/>
      <point x="547" y="236"/>
      <point x="525" y="239"/>
      <point x="512" y="253" type="curve"/>
      <point x="500" y="266"/>
      <point x="497" y="287"/>
      <point x="497" y="306" type="curve"/>
      <point x="498" y="315"/>
      <point x="500" y="329"/>
      <point x="501" y="338" type="curve"/>
      <point x="459" y="321" type="line"/>
      <point x="459" y="313"/>
      <point x="458" y="305"/>
      <point x="456" y="297" type="curve" smooth="yes"/>
      <point x="450" y="265"/>
      <point x="430" y="235"/>
      <point x="388" y="235" type="curve" smooth="yes"/>
      <point x="351" y="235"/>
      <point x="334" y="253"/>
      <point x="317" y="276" type="curve" smooth="yes"/>
      <point x="303" y="297"/>
      <point x="289" y="318"/>
      <point x="246" y="318" type="curve" smooth="yes"/>
      <point x="226" y="318"/>
      <point x="206" y="312"/>
      <point x="186" y="299" type="curve" smooth="yes"/>
      <point x="166" y="287"/>
      <point x="146" y="268"/>
      <point x="131" y="247" type="curve" smooth="yes"/>
      <point x="117" y="229"/>
      <point x="105" y="204"/>
      <point x="100" y="187" type="curve" smooth="yes"/>
      <point x="95" y="169"/>
      <point x="92" y="147"/>
      <point x="94" y="125" type="curve"/>
      <point x="81" y="121"/>
      <point x="41" y="124"/>
      <point x="16" y="125" type="curve"/>
      <point x="-13" y="125" type="line" smooth="yes"/>
      <point x="-48" y="125"/>
      <point x="-76" y="102"/>
      <point x="-76" y="63" type="curve" smooth="yes"/>
      <point x="-76" y="23"/>
      <point x="-47" y="0"/>
      <point x="-13" y="0" type="curve" smooth="yes"/>
      <point x="12" y="0" type="line" smooth="yes"/>
      <point x="68" y="0"/>
      <point x="93" y="10"/>
      <point x="135" y="10" type="curve" smooth="yes"/>
      <point x="166" y="10"/>
      <point x="200" y="1"/>
      <point x="243" y="-23" type="curve"/>
      <point x="260" y="26"/>
      <point x="267" y="73"/>
      <point x="266" y="115" type="curve"/>
      <point x="221" y="127"/>
      <point x="163" y="141"/>
      <point x="163" y="173" type="curve" smooth="yes"/>
      <point x="163" y="197"/>
      <point x="191" y="231"/>
      <point x="240" y="231" type="curve" smooth="yes"/>
      <point x="279" y="231"/>
      <point x="296" y="206"/>
      <point x="312" y="180" type="curve" smooth="yes"/>
      <point x="332" y="148"/>
      <point x="351" y="118"/>
      <point x="394" y="118" type="curve" smooth="yes"/>
      <point x="445" y="118"/>
      <point x="465" y="154"/>
      <point x="473" y="175" type="curve"/>
      <point x="479" y="156"/>
      <point x="507" y="124"/>
      <point x="558" y="124" type="curve" smooth="yes"/>
      <point x="599" y="124"/>
      <point x="632" y="145"/>
      <point x="653" y="182" type="curve" smooth="yes"/>
      <point x="675" y="219"/>
      <point x="678" y="261"/>
      <point x="678" y="281" type="curve" smooth="yes"/>
      <point x="678" y="327"/>
      <point x="660" y="376"/>
      <point x="627" y="410" type="curve"/>
    </contour>
    <contour>
      <point x="362" y="0" type="move" name="caret_1"/>
    </contour>
    <contour>
      <point x="469" y="73" type="move" name="bottom_1"/>
    </contour>
    <contour>
      <point x="474" y="382" type="move" name="top_1"/>
    </contour>
    <contour>
      <point x="120" y="325" type="move" name="top_2"/>
    </contour>
    <contour>
      <point x="168" y="-44" type="move" name="bottom_2"/>
    </contour>
  </outline>
</glyph>
<glyph name="uniFCCD" format="1">
  <advance width="452"/>
  <unicode hex="FCCD"/>
  <outline>
    <contour>
      <point x="379" y="173"/>
      <point x="368" y="201"/>
      <point x="345" y="226" type="curve" smooth="yes"/>
      <point x="325" y="247"/>
      <point x="301" y="263"/>
      <point x="277" y="279" type="curve"/>
      <point x="245" y="300"/>
      <point x="221" y="317"/>
      <point x="209" y="346" type="curve" smooth="yes"/>
      <point x="203" y="362"/>
      <point x="195" y="388"/>
      <point x="190" y="412" type="curve" smooth="yes"/>
      <point x="184" y="444"/>
      <point x="198" y="466"/>
      <point x="225" y="486" type="curve"/>
      <point x="192" y="517"/>
      <point x="167" y="555"/>
      <point x="148" y="594" type="curve"/>
      <point x="81" y="494" type="line"/>
      <point x="101" y="447"/>
      <point x="128" y="360"/>
      <point x="138" y="307" type="curve"/>
      <point x="101" y="293"/>
      <point x="66" y="267"/>
      <point x="43" y="222" type="curve" smooth="yes"/>
      <point x="26" y="188"/>
      <point x="26" y="159"/>
      <point x="38" y="125" type="curve"/>
      <point x="-13" y="125" type="line" smooth="yes"/>
      <point x="-48" y="125"/>
      <point x="-76" y="97"/>
      <point x="-76" y="62" type="curve" smooth="yes"/>
      <point x="-76" y="26"/>
      <point x="-49" y="0"/>
      <point x="-13" y="0" type="curve" smooth="yes"/>
      <point x="36" y="0" type="line" smooth="yes"/>
      <point x="90" y="0"/>
      <point x="130" y="15"/>
      <point x="157" y="45" type="curve"/>
      <point x="201" y="30"/>
      <point x="233" y="17"/>
      <point x="288" y="-10" type="curve"/>
      <point x="306" y="8"/>
      <point x="325" y="28"/>
      <point x="342" y="46" type="curve" smooth="yes"/>
      <point x="365" y="71"/>
      <point x="379" y="107"/>
      <point x="379" y="142" type="curve" smooth="yes"/>
    </contour>
    <contour>
      <point x="197" y="180"/>
      <point x="189" y="170"/>
      <point x="179" y="162" type="curve" smooth="yes"/>
      <point x="168" y="155"/>
      <point x="155" y="149"/>
      <point x="143" y="149" type="curve" smooth="yes"/>
      <point x="132" y="149"/>
      <point x="114" y="155"/>
      <point x="100" y="163" type="curve" smooth="yes"/>
      <point x="88" y="170"/>
      <point x="76" y="180"/>
      <point x="73" y="189" type="curve"/>
      <point x="75" y="197"/>
      <point x="91" y="216"/>
      <point x="110" y="231" type="curve" smooth="yes"/>
      <point x="125" y="244"/>
      <point x="143" y="255"/>
      <point x="154" y="255" type="curve" smooth="yes"/>
      <point x="164" y="255"/>
      <point x="175" y="244"/>
      <point x="182" y="230" type="curve" smooth="yes"/>
      <point x="191" y="217"/>
      <point x="197" y="201"/>
      <point x="197" y="191" type="curve" smooth="yes"/>
    </contour>
    <contour>
      <point x="292" y="112"/>
      <point x="238" y="124"/>
      <point x="213" y="131" type="curve"/>
      <point x="225" y="147"/>
      <point x="233" y="163"/>
      <point x="236" y="180" type="curve" smooth="yes"/>
      <point x="238" y="197"/>
      <point x="237" y="215"/>
      <point x="232" y="235" type="curve"/>
      <point x="257" y="217"/>
      <point x="269" y="209"/>
      <point x="292" y="192" type="curve" smooth="yes"/>
      <point x="317" y="175"/>
      <point x="330" y="139"/>
      <point x="310" y="107" type="curve"/>
    </contour>
    <contour>
      <point x="216" y="0" type="move" name="caret_1"/>
    </contour>
    <contour>
      <point x="288" y="-78" type="move" name="bottom_1"/>
    </contour>
    <contour>
      <point x="276" y="587" type="move" name="top_1"/>
    </contour>
    <contour>
      <point x="17" y="595" type="move" name="top_2"/>
    </contour>
    <contour>
      <point x="71" y="-28" type="move" name="bottom_2"/>
    </contour>
  </outline>
</glyph>
<glyph name="uniFCEB" format="1">
  <advance width="581"/>
  <unicode hex="FCEB"/>
  <outline>
    <contour>
      <point x="532" y="125" type="line" smooth="yes"/>
      <point x="475" y="125"/>
      <point x="449" y="159"/>
      <point x="422" y="193" type="curve" smooth="yes"/>
      <point x="396" y="224"/>
      <point x="368" y="259"/>
      <point x="339" y="291" type="curve" smooth="yes"/>
      <point x="316" y="316"/>
      <point x="286" y="348"/>
      <point x="263" y="371" type="curve"/>
      <point x="327" y="409"/>
      <point x="404" y="448"/>
      <point x="468" y="473" type="curve"/>
      <point x="478" y="516"/>
      <point x="485" y="551"/>
      <point x="489" y="595" type="curve"/>
      <point x="388" y="547"/>
      <point x="235" y="469"/>
      <point x="158" y="398" type="curve"/>
      <point x="152" y="463"/>
      <point x="145" y="527"/>
      <point x="138" y="595" type="curve"/>
      <point x="105" y="560"/>
      <point x="82" y="530"/>
      <point x="54" y="485" type="curve"/>
      <point x="60" y="448"/>
      <point x="84" y="327"/>
      <point x="94" y="244" type="curve" smooth="yes"/>
      <point x="96" y="230"/>
      <point x="99" y="214"/>
      <point x="100" y="188" type="curve"/>
      <point x="101" y="173"/>
      <point x="98" y="159"/>
      <point x="87" y="147" type="curve" smooth="yes"/>
      <point x="74" y="133"/>
      <point x="55" y="125"/>
      <point x="32" y="125" type="curve" smooth="yes"/>
      <point x="-13" y="125" type="line" smooth="yes"/>
      <point x="-48" y="125"/>
      <point x="-76" y="97"/>
      <point x="-76" y="62" type="curve" smooth="yes"/>
      <point x="-76" y="31"/>
      <point x="-51" y="0"/>
      <point x="-13" y="0" type="curve" smooth="yes"/>
      <point x="57" y="0" type="line" smooth="yes"/>
      <point x="127" y="0"/>
      <point x="159" y="41"/>
      <point x="162" y="63" type="curve"/>
      <point x="179" y="21"/>
      <point x="217" y="0"/>
      <point x="276" y="0" type="curve"/>
      <point x="336" y="0"/>
      <point x="379" y="34"/>
      <point x="389" y="88" type="curve"/>
      <point x="402" y="57"/>
      <point x="444" y="0"/>
      <point x="533" y="0" type="curve" smooth="yes"/>
      <point x="582" y="0" type="line"/>
      <point x="582" y="125" type="line"/>
    </contour>
    <contour>
      <point x="317" y="131"/>
      <point x="299" y="122"/>
      <point x="260" y="121" type="curve"/>
      <point x="229" y="122"/>
      <point x="212" y="129"/>
      <point x="198" y="147" type="curve" smooth="yes"/>
      <point x="188" y="160"/>
      <point x="184" y="177"/>
      <point x="182" y="193" type="curve" smooth="yes"/>
      <point x="176" y="248"/>
      <point x="170" y="292"/>
      <point x="165" y="343" type="curve"/>
      <point x="193" y="316"/>
      <point x="240" y="272"/>
      <point x="259" y="250" type="curve" smooth="yes"/>
      <point x="283" y="222"/>
      <point x="312" y="190"/>
      <point x="334" y="155" type="curve"/>
    </contour>
    <contour>
      <point x="291" y="0" type="move" name="caret_1"/>
    </contour>
    <contour>
      <point x="318" y="-28" type="move" name="bottom_1"/>
    </contour>
    <contour>
      <point x="362" y="586" type="move" name="top_1"/>
    </contour>
    <contour>
      <point x="39" y="585" type="move" name="top_2"/>
    </contour>
    <contour>
      <point x="58" y="-28" type="move" name="bottom_2"/>
    </contour>
  </outline>
</glyph>
<glyph name="uniFCF5" format="1">
  <advance width="1001"/>
  <unicode hex="FCF5"/>
  <outline>
    <contour>
      <point x="880" y="372"/>
      <point x="851" y="382"/>
      <point x="823" y="382" type="curve" smooth="yes"/>
      <point x="789" y="382"/>
      <point x="756" y="366"/>
      <point x="721" y="341" type="curve" smooth="yes"/>
      <point x="698" y="324"/>
      <point x="675" y="302"/>
      <point x="651" y="278" type="curve"/>
      <point x="661" y="342"/>
      <point x="656" y="384"/>
      <point x="648" y="440" type="curve"/>
      <point x="642" y="492"/>
      <point x="670" y="514"/>
      <point x="681" y="524" type="curve"/>
      <point x="636" y="565"/>
      <point x="607" y="633"/>
      <point x="604" y="639" type="curve"/>
      <point x="537" y="536" type="line"/>
      <point x="544" y="520"/>
      <point x="556" y="492"/>
      <point x="565" y="459" type="curve" smooth="yes"/>
      <point x="585" y="387"/>
      <point x="594" y="282"/>
      <point x="598" y="217" type="curve"/>
      <point x="576" y="184"/>
      <point x="557" y="147"/>
      <point x="549" y="128" type="curve"/>
      <point x="489" y="107"/>
      <point x="463" y="92"/>
      <point x="453" y="82" type="curve" smooth="yes"/>
      <point x="428" y="61"/>
      <point x="421" y="9"/>
      <point x="418" y="-4" type="curve" smooth="yes"/>
      <point x="422" y="-5"/>
      <point x="451" y="-10"/>
      <point x="475" y="-16" type="curve" smooth="yes"/>
      <point x="512" y="-26"/>
      <point x="542" y="-40"/>
      <point x="542" y="-56" type="curve"/>
      <point x="539" y="-83"/>
      <point x="488" y="-108"/>
      <point x="436" y="-121" type="curve" smooth="yes"/>
      <point x="398" y="-132"/>
      <point x="349" y="-143"/>
      <point x="295" y="-143" type="curve" smooth="yes"/>
      <point x="229" y="-143"/>
      <point x="179" y="-128"/>
      <point x="150" y="-93" type="curve" smooth="yes"/>
      <point x="121" y="-59"/>
      <point x="123" y="-8"/>
      <point x="134" y="53" type="curve"/>
      <point x="99" y="65" type="line"/>
      <point x="80" y="18"/>
      <point x="67" y="-40"/>
      <point x="64" y="-74" type="curve" smooth="yes"/>
      <point x="61" y="-106"/>
      <point x="66" y="-141"/>
      <point x="77" y="-169" type="curve" smooth="yes"/>
      <point x="92" y="-205"/>
      <point x="120" y="-234"/>
      <point x="156" y="-253" type="curve" smooth="yes"/>
      <point x="193" y="-272"/>
      <point x="238" y="-282"/>
      <point x="288" y="-282" type="curve" smooth="yes"/>
      <point x="349" y="-282"/>
      <point x="422" y="-267"/>
      <point x="477" y="-238" type="curve" smooth="yes"/>
      <point x="521" y="-215"/>
      <point x="563" y="-180"/>
      <point x="587" y="-141" type="curve" smooth="yes"/>
      <point x="610" y="-104"/>
      <point x="621" y="-61"/>
      <point x="612" y="-27" type="curve" smooth="yes"/>
      <point x="606" y="7"/>
      <point x="583" y="26"/>
      <point x="549" y="37" type="curve"/>
      <point x="708" y="81"/>
      <point x="820" y="111"/>
      <point x="880" y="153" type="curve" smooth="yes"/>
      <point x="927" y="185"/>
      <point x="947" y="230"/>
      <point x="947" y="268" type="curve" smooth="yes"/>
      <point x="947" y="297"/>
      <point x="933" y="332"/>
      <point x="903" y="355" type="curve" smooth="yes"/>
    </contour>
    <contour>
      <point x="665" y="171"/>
      <point x="649" y="175"/>
      <point x="655" y="185" type="curve" smooth="yes"/>
      <point x="679" y="211"/>
      <point x="707" y="245"/>
      <point x="750" y="258" type="curve" smooth="yes"/>
      <point x="789" y="272"/>
      <point x="821" y="269"/>
      <point x="846" y="261" type="curve"/>
      <point x="851" y="252"/>
      <point x="844" y="239"/>
      <point x="804" y="213" type="curve" smooth="yes"/>
      <point x="791" y="203"/>
      <point x="744" y="189"/>
      <point x="685" y="171" type="curve"/>
    </contour>
    <contour>
      <point x="503" y="0" type="move" name="caret_1"/>
    </contour>
    <contour>
      <point x="750" y="-18" type="move" name="bottom_1"/>
    </contour>
    <contour>
      <point x="829" y="412" type="move" name="top_1"/>
    </contour>
    <contour>
      <point x="267" y="54" type="move" name="top_2"/>
    </contour>
    <contour>
      <point x="295" y="-312" type="move" name="bottom_2"/>
    </contour>
  </outline>
</glyph>
<glyph name="uniFCFB" format="1">
  <advance width="1055"/>
  <unicode hex="FCFB"/>
  <outline>
    <contour>
      <point x="930" y="273"/>
      <point x="915" y="252"/>
      <point x="898" y="225" type="curve"/>
      <point x="945" y="159" type="line"/>
      <point x="931" y="131"/>
      <point x="918" y="121"/>
      <point x="888" y="121" type="curve" smooth="yes"/>
      <point x="871" y="121"/>
      <point x="849" y="124"/>
      <point x="836" y="139" type="curve" smooth="yes"/>
      <point x="824" y="151"/>
      <point x="821" y="172"/>
      <point x="821" y="191" type="curve" smooth="yes"/>
      <point x="822" y="201"/>
      <point x="824" y="214"/>
      <point x="825" y="223" type="curve"/>
      <point x="783" y="207" type="line"/>
      <point x="783" y="201"/>
      <point x="783" y="182"/>
      <point x="776" y="166" type="curve" smooth="yes"/>
      <point x="768" y="143"/>
      <point x="751" y="119"/>
      <point x="699" y="119" type="curve" smooth="yes"/>
      <point x="653" y="119"/>
      <point x="627" y="140"/>
      <point x="604" y="172" type="curve" smooth="yes"/>
      <point x="582" y="203"/>
      <point x="564" y="233"/>
      <point x="519" y="233" type="curve" smooth="yes"/>
      <point x="485" y="233"/>
      <point x="458" y="213"/>
      <point x="429" y="170" type="curve" smooth="yes"/>
      <point x="418" y="153"/>
      <point x="397" y="119"/>
      <point x="385" y="86" type="curve" smooth="yes"/>
      <point x="371" y="52"/>
      <point x="364" y="15"/>
      <point x="376" y="-9" type="curve" smooth="yes"/>
      <point x="385" y="-29"/>
      <point x="408" y="-44"/>
      <point x="445" y="-55" type="curve" smooth="yes"/>
      <point x="468" y="-61"/>
      <point x="501" y="-66"/>
      <point x="528" y="-68" type="curve"/>
      <point x="523" y="-99"/>
      <point x="480" y="-118"/>
      <point x="421" y="-131" type="curve" smooth="yes"/>
      <point x="385" y="-139"/>
      <point x="347" y="-144"/>
      <point x="310" y="-144" type="curve" smooth="yes"/>
      <point x="262" y="-144"/>
      <point x="215" y="-137"/>
      <point x="183" y="-115" type="curve" smooth="yes"/>
      <point x="141" y="-95"/>
      <point x="126" y="-59"/>
      <point x="126" y="-17" type="curve" smooth="yes"/>
      <point x="125" y="4"/>
      <point x="128" y="30"/>
      <point x="135" y="53" type="curve"/>
      <point x="100" y="66" type="line"/>
      <point x="76" y="13"/>
      <point x="63" y="-50"/>
      <point x="64" y="-99" type="curve" smooth="yes"/>
      <point x="64" y="-147"/>
      <point x="81" y="-195"/>
      <point x="117" y="-228" type="curve" smooth="yes"/>
      <point x="155" y="-262"/>
      <point x="213" y="-282"/>
      <point x="291" y="-282" type="curve" smooth="yes"/>
      <point x="392" y="-282"/>
      <point x="461" y="-257"/>
      <point x="520" y="-211" type="curve" smooth="yes"/>
      <point x="547" y="-189"/>
      <point x="568" y="-164"/>
      <point x="583" y="-137" type="curve" smooth="yes"/>
      <point x="598" y="-108"/>
      <point x="608" y="-79"/>
      <point x="608" y="-51" type="curve" smooth="yes"/>
      <point x="608" y="-5"/>
      <point x="579" y="15"/>
      <point x="537" y="18" type="curve" smooth="yes"/>
      <point x="509" y="21"/>
      <point x="495" y="22"/>
      <point x="474" y="28" type="curve" smooth="yes"/>
      <point x="456" y="33"/>
      <point x="445" y="44"/>
      <point x="446" y="63" type="curve" smooth="yes"/>
      <point x="446" y="84"/>
      <point x="468" y="118"/>
      <point x="506" y="118" type="curve" smooth="yes"/>
      <point x="554" y="118"/>
      <point x="581" y="92"/>
      <point x="604" y="64" type="curve" smooth="yes"/>
      <point x="628" y="35"/>
      <point x="652" y="3"/>
      <point x="705" y="3" type="curve" smooth="yes"/>
      <point x="764" y="3"/>
      <point x="790" y="40"/>
      <point x="797" y="60" type="curve"/>
      <point x="803" y="41"/>
      <point x="831" y="9"/>
      <point x="882" y="9" type="curve" smooth="yes"/>
      <point x="923" y="9"/>
      <point x="956" y="31"/>
      <point x="977" y="67" type="curve" smooth="yes"/>
      <point x="999" y="104"/>
      <point x="1002" y="146"/>
      <point x="1002" y="167" type="curve" smooth="yes"/>
      <point x="1002" y="212"/>
      <point x="984" y="261"/>
      <point x="951" y="295" type="curve"/>
    </contour>
    <contour>
      <point x="526" y="0" type="move" name="caret_1"/>
    </contour>
    <contour>
      <point x="792" y="-28" type="move" name="bottom_1"/>
    </contour>
    <contour>
      <point x="790" y="267" type="move" name="top_1"/>
    </contour>
    <contour>
      <point x="235" y="68" type="move" name="top_2"/>
    </contour>
    <contour>
      <point x="301" y="-312" type="move" name="bottom_2"/>
    </contour>
  </outline>
</glyph>
<glyph name="uniFCFF" format="1">
  <advance width="959"/>
  <unicode hex="FCFF"/>
  <outline>
    <contour>
      <point x="758" y="240"/>
      <point x="686" y="270"/>
      <point x="632" y="293" type="curve" smooth="yes"/>
      <point x="601" y="307"/>
      <point x="575" y="318"/>
      <point x="545" y="318" type="curve" smooth="yes"/>
      <point x="514" y="318"/>
      <point x="488" y="305"/>
      <point x="464" y="282" type="curve" smooth="yes"/>
      <point x="441" y="261"/>
      <point x="429" y="230"/>
      <point x="414" y="186" type="curve"/>
      <point x="442" y="162" type="line"/>
      <point x="455" y="185"/>
      <point x="478" y="215"/>
      <point x="509" y="216" type="curve" smooth="yes"/>
      <point x="527" y="218"/>
      <point x="554" y="213"/>
      <point x="584" y="205" type="curve" smooth="yes"/>
      <point x="605" y="199"/>
      <point x="641" y="188"/>
      <point x="656" y="183" type="curve"/>
      <point x="610" y="169"/>
      <point x="572" y="154"/>
      <point x="542" y="140" type="curve" smooth="yes"/>
      <point x="496" y="119"/>
      <point x="464" y="98"/>
      <point x="452" y="87" type="curve" smooth="yes"/>
      <point x="436" y="71"/>
      <point x="427" y="53"/>
      <point x="419" y="1" type="curve"/>
      <point x="443" y="-4"/>
      <point x="458" y="-7"/>
      <point x="485" y="-14" type="curve" smooth="yes"/>
      <point x="517" y="-25"/>
      <point x="543" y="-39"/>
      <point x="543" y="-56" type="curve" smooth="yes"/>
      <point x="543" y="-86"/>
      <point x="490" y="-109"/>
      <point x="436" y="-121" type="curve" smooth="yes"/>
      <point x="399" y="-132"/>
      <point x="349" y="-141"/>
      <point x="299" y="-141" type="curve" smooth="yes"/>
      <point x="228" y="-141"/>
      <point x="178" y="-127"/>
      <point x="150" y="-91" type="curve" smooth="yes"/>
      <point x="122" y="-56"/>
      <point x="121" y="-2"/>
      <point x="134" y="54" type="curve"/>
      <point x="99" y="67" type="line"/>
      <point x="80" y="23"/>
      <point x="68" y="-20"/>
      <point x="64" y="-64" type="curve" smooth="yes"/>
      <point x="61" y="-99"/>
      <point x="64" y="-135"/>
      <point x="78" y="-167" type="curve" smooth="yes"/>
      <point x="92" y="-203"/>
      <point x="119" y="-232"/>
      <point x="156" y="-252" type="curve" smooth="yes"/>
      <point x="192" y="-271"/>
      <point x="237" y="-281"/>
      <point x="290" y="-281" type="curve" smooth="yes"/>
      <point x="346" y="-281"/>
      <point x="405" y="-269"/>
      <point x="458" y="-245" type="curve" smooth="yes"/>
      <point x="517" y="-220"/>
      <point x="567" y="-180"/>
      <point x="593" y="-130" type="curve" smooth="yes"/>
      <point x="608" y="-101"/>
      <point x="616" y="-72"/>
      <point x="616" y="-46" type="curve" smooth="yes"/>
      <point x="616" y="10"/>
      <point x="577" y="35"/>
      <point x="526" y="53" type="curve"/>
      <point x="541" y="62"/>
      <point x="581" y="83"/>
      <point x="626" y="99" type="curve" smooth="yes"/>
      <point x="675" y="117"/>
      <point x="742" y="134"/>
      <point x="803" y="134" type="curve" smooth="yes"/>
      <point x="854" y="134" type="line"/>
      <point x="873" y="165"/>
      <point x="887" y="197"/>
      <point x="906" y="243" type="curve" smooth="yes"/>
      <point x="900" y="243"/>
      <point x="895" y="242"/>
      <point x="890" y="242" type="curve" smooth="yes"/>
    </contour>
    <contour>
      <point x="483" y="0" type="move" name="caret_1"/>
    </contour>
    <contour>
      <point x="765" y="61" type="move" name="bottom_1"/>
    </contour>
    <contour>
      <point x="564" y="349" type="move" name="top_1"/>
    </contour>
    <contour>
      <point x="233" y="67" type="move" name="top_2"/>
    </contour>
    <contour>
      <point x="304" y="-311" type="move" name="bottom_2"/>
    </contour>
  </outline>
</glyph>
<glyph name="uniFD17" format="1">
  <advance width="1070"/>
  <unicode hex="FD17"/>
  <outline>
    <contour>
      <point x="1029" y="125" type="line" smooth="yes"/>
      <point x="1004" y="125"/>
      <point x="987" y="131"/>
      <point x="977" y="143" type="curve"/>
      <point x="961" y="161"/>
      <point x="964" y="186"/>
      <point x="968" y="223" type="curve"/>
      <point x="927" y="207" type="line"/>
      <point x="927" y="185"/>
      <point x="923" y="164"/>
      <point x="914" y="148" type="curve" smooth="yes"/>
      <point x="904" y="132"/>
      <point x="890" y="122"/>
      <point x="867" y="122" type="curve" smooth="yes"/>
      <point x="833" y="122"/>
      <point x="823" y="145"/>
      <point x="821" y="176" type="curve" smooth="yes"/>
      <point x="820" y="191"/>
      <point x="822" y="207"/>
      <point x="825" y="223" type="curve"/>
      <point x="783" y="207" type="line"/>
      <point x="782" y="190"/>
      <point x="779" y="175"/>
      <point x="770" y="160" type="curve" smooth="yes"/>
      <point x="758" y="135"/>
      <point x="738" y="123"/>
      <point x="697" y="123" type="curve" smooth="yes"/>
      <point x="658" y="123"/>
      <point x="627" y="142"/>
      <point x="596" y="180" type="curve" smooth="yes"/>
      <point x="575" y="207"/>
      <point x="558" y="233"/>
      <point x="519" y="233" type="curve" smooth="yes"/>
      <point x="486" y="233"/>
      <point x="458" y="213"/>
      <point x="429" y="170" type="curve" smooth="yes"/>
      <point x="416" y="152"/>
      <point x="398" y="119"/>
      <point x="385" y="86" type="curve" smooth="yes"/>
      <point x="370" y="49"/>
      <point x="365" y="17"/>
      <point x="376" y="-8" type="curve" smooth="yes"/>
      <point x="385" y="-28"/>
      <point x="407" y="-45"/>
      <point x="445" y="-55" type="curve" smooth="yes"/>
      <point x="468" y="-60"/>
      <point x="501" y="-66"/>
      <point x="528" y="-68" type="curve"/>
      <point x="524" y="-94"/>
      <point x="484" y="-115"/>
      <point x="431" y="-128" type="curve" smooth="yes"/>
      <point x="391" y="-139"/>
      <point x="345" y="-144"/>
      <point x="309" y="-144" type="curve" smooth="yes"/>
      <point x="264" y="-144"/>
      <point x="215" y="-137"/>
      <point x="183" y="-115" type="curve" smooth="yes"/>
      <point x="140" y="-94"/>
      <point x="126" y="-57"/>
      <point x="126" y="-15" type="curve" smooth="yes"/>
      <point x="126" y="12"/>
      <point x="129" y="31"/>
      <point x="135" y="53" type="curve"/>
      <point x="100" y="66" type="line"/>
      <point x="76" y="13"/>
      <point x="63" y="-50"/>
      <point x="64" y="-99" type="curve" smooth="yes"/>
      <point x="64" y="-147"/>
      <point x="80" y="-195"/>
      <point x="117" y="-228" type="curve" smooth="yes"/>
      <point x="155" y="-262"/>
      <point x="213" y="-282"/>
      <point x="291" y="-282" type="curve" smooth="yes"/>
      <point x="383" y="-282"/>
      <point x="461" y="-257"/>
      <point x="520" y="-211" type="curve" smooth="yes"/>
      <point x="547" y="-189"/>
      <point x="568" y="-164"/>
      <point x="583" y="-137" type="curve" smooth="yes"/>
      <point x="598" y="-108"/>
      <point x="608" y="-81"/>
      <point x="608" y="-52" type="curve" smooth="yes"/>
      <point x="608" y="-8"/>
      <point x="581" y="14"/>
      <point x="537" y="18" type="curve" smooth="yes"/>
      <point x="509" y="21"/>
      <point x="495" y="22"/>
      <point x="474" y="28" type="curve" smooth="yes"/>
      <point x="456" y="33"/>
      <point x="445" y="44"/>
      <point x="446" y="63" type="curve" smooth="yes"/>
      <point x="446" y="84"/>
      <point x="468" y="116"/>
      <point x="505" y="116" type="curve" smooth="yes"/>
      <point x="538" y="116"/>
      <point x="559" y="102"/>
      <point x="578" y="84" type="curve" smooth="yes"/>
      <point x="595" y="67"/>
      <point x="609" y="48"/>
      <point x="632" y="29" type="curve" smooth="yes"/>
      <point x="651" y="14"/>
      <point x="674" y="3"/>
      <point x="705" y="3" type="curve" smooth="yes"/>
      <point x="755" y="3"/>
      <point x="783" y="30"/>
      <point x="793" y="54" type="curve"/>
      <point x="797" y="29"/>
      <point x="816" y="0"/>
      <point x="860" y="0" type="curve" smooth="yes"/>
      <point x="913" y="0"/>
      <point x="932" y="40"/>
      <point x="938" y="57" type="curve"/>
      <point x="949" y="22"/>
      <point x="983" y="0"/>
      <point x="1027" y="0" type="curve" smooth="yes"/>
      <point x="1070" y="0" type="line"/>
      <point x="1070" y="125" type="line"/>
    </contour>
    <contour>
      <point x="534" y="0" type="move" name="caret_1"/>
    </contour>
    <contour>
      <point x="790" y="-28" type="move" name="bottom_1"/>
    </contour>
    <contour>
      <point x="795" y="263" type="move" name="top_1"/>
    </contour>
    <contour>
      <point x="225" y="70" type="move" name="top_2"/>
    </contour>
    <contour>
      <point x="297" y="-312" type="move" name="bottom_2"/>
    </contour>
  </outline>
</glyph>
<glyph name="uniFEF0" format="1">
  <advance width="709"/>
  <unicode hex="FEF0"/>
  <outline>
    <contour>
      <point x="490" y="125" type="line"/>
      <point x="464" y="94"/>
      <point x="442" y="55"/>
      <point x="417" y="2" type="curve" smooth="yes"/>
      <point x="421" y="1"/>
      <point x="459" y="-4"/>
      <point x="485" y="-13" type="curve" smooth="yes"/>
      <point x="523" y="-26"/>
      <point x="544" y="-41"/>
      <point x="544" y="-56" type="curve"/>
      <point x="535" y="-85"/>
      <point x="490" y="-109"/>
      <point x="430" y="-124" type="curve" smooth="yes"/>
      <point x="390" y="-135"/>
      <point x="345" y="-141"/>
      <point x="299" y="-141" type="curve" smooth="yes"/>
      <point x="228" y="-141"/>
      <point x="178" y="-126"/>
      <point x="149" y="-91" type="curve" smooth="yes"/>
      <point x="122" y="-58"/>
      <point x="123" y="-4"/>
      <point x="134" y="54" type="curve"/>
      <point x="99" y="67" type="line"/>
      <point x="79" y="19"/>
      <point x="66" y="-33"/>
      <point x="64" y="-72" type="curve" smooth="yes"/>
      <point x="62" y="-107"/>
      <point x="65" y="-139"/>
      <point x="77" y="-167" type="curve" smooth="yes"/>
      <point x="91" y="-202"/>
      <point x="116" y="-230"/>
      <point x="151" y="-249" type="curve" smooth="yes"/>
      <point x="188" y="-270"/>
      <point x="235" y="-281"/>
      <point x="290" y="-281" type="curve" smooth="yes"/>
      <point x="344" y="-281"/>
      <point x="401" y="-269"/>
      <point x="451" y="-248" type="curve" smooth="yes"/>
      <point x="515" y="-222"/>
      <point x="567" y="-181"/>
      <point x="594" y="-130" type="curve" smooth="yes"/>
      <point x="613" y="-93"/>
      <point x="618" y="-63"/>
      <point x="618" y="-45" type="curve" smooth="yes"/>
      <point x="618" y="-28"/>
      <point x="613" y="-12"/>
      <point x="605" y="0" type="curve"/>
      <point x="709" y="0" type="line"/>
      <point x="709" y="125" type="line"/>
    </contour>
    <contour>
      <point x="279" y="68" type="move" name="top"/>
    </contour>
    <contour>
      <point x="314" y="-315" type="move" name="bottom"/>
    </contour>
  </outline>
</glyph>
<glyph name="uni06430643.fina" format="1">
  <advance width="1121"/>
  <outline>
    <contour>
      <point x="1071" y="125" type="line" smooth="yes"/>
      <point x="1014" y="125"/>
      <point x="988" y="159"/>
      <point x="961" y="193" type="curve" smooth="yes"/>
      <point x="935" y="224"/>
      <point x="907" y="259"/>
      <point x="878" y="291" type="curve" smooth="yes"/>
      <point x="855" y="316"/>
      <point x="825" y="348"/>
      <point x="802" y="371" type="curve"/>
      <point x="866" y="409"/>
      <point x="943" y="448"/>
      <point x="1007" y="473" type="curve"/>
      <point x="1017" y="516"/>
      <point x="1024" y="551"/>
      <point x="1028" y="595" type="curve"/>
      <point x="928" y="547"/>
      <point x="775" y="469"/>
      <point x="697" y="398" type="curve"/>
      <point x="691" y="463"/>
      <point x="684" y="527"/>
      <point x="677" y="595" type="curve"/>
      <point x="644" y="560"/>
      <point x="621" y="530"/>
      <point x="593" y="485" type="curve"/>
      <point x="611" y="391"/>
      <point x="626" y="300"/>
      <point x="633" y="244" type="curve" smooth="yes"/>
      <point x="635" y="231"/>
      <point x="637" y="218"/>
      <point x="638" y="198" type="curve"/>
      <point x="640" y="176"/>
      <point x="635" y="157"/>
      <point x="623" y="144" type="curve" smooth="yes"/>
      <point x="611" y="130"/>
      <point x="594" y="122"/>
      <point x="571" y="122" type="curve" smooth="yes"/>
      <point x="527" y="122"/>
      <point x="494" y="122"/>
      <point x="415" y="120" type="curve" smooth="yes"/>
      <point x="322" y="119"/>
      <point x="264" y="123"/>
      <point x="239" y="126" type="curve" smooth="yes"/>
      <point x="201" y="132"/>
      <point x="155" y="148"/>
      <point x="131" y="176" type="curve" smooth="yes"/>
      <point x="120" y="190"/>
      <point x="108" y="212"/>
      <point x="105" y="245" type="curve"/>
      <point x="69" y="255" type="line"/>
      <point x="60" y="193"/>
      <point x="60" y="148"/>
      <point x="77" y="108" type="curve" smooth="yes"/>
      <point x="87" y="84"/>
      <point x="104" y="60"/>
      <point x="127" y="42" type="curve" smooth="yes"/>
      <point x="151" y="24"/>
      <point x="189" y="6"/>
      <point x="237" y="-2" type="curve" smooth="yes"/>
      <point x="274" y="-8"/>
      <point x="329" y="-9"/>
      <point x="400" y="-8" type="curve" smooth="yes"/>
      <point x="460" y="-7"/>
      <point x="494" y="-7"/>
      <point x="578" y="-7" type="curve" smooth="yes"/>
      <point x="647" y="-7"/>
      <point x="683" y="14"/>
      <point x="701" y="63" type="curve"/>
      <point x="718" y="21"/>
      <point x="756" y="0"/>
      <point x="815" y="0" type="curve" smooth="yes"/>
      <point x="875" y="0"/>
      <point x="918" y="34"/>
      <point x="928" y="88" type="curve"/>
      <point x="941" y="57"/>
      <point x="983" y="0"/>
      <point x="1072" y="0" type="curve" smooth="yes"/>
      <point x="1121" y="0" type="line"/>
      <point x="1121" y="125" type="line"/>
    </contour>
    <contour>
      <point x="855" y="131"/>
      <point x="837" y="122"/>
      <point x="798" y="121" type="curve" smooth="yes"/>
      <point x="767" y="122"/>
      <point x="749" y="129"/>
      <point x="735" y="147" type="curve" smooth="yes"/>
      <point x="725" y="160"/>
      <point x="721" y="177"/>
      <point x="719" y="193" type="curve" smooth="yes"/>
      <point x="713" y="246"/>
      <point x="707" y="293"/>
      <point x="702" y="343" type="curve"/>
      <point x="730" y="316"/>
      <point x="778" y="271"/>
      <point x="796" y="249" type="curve" smooth="yes"/>
      <point x="821" y="221"/>
      <point x="850" y="190"/>
      <point x="872" y="155" type="curve"/>
    </contour>
    <contour>
      <point x="475" y="283"/>
      <point x="449" y="287"/>
      <point x="418" y="287" type="curve" smooth="yes"/>
      <point x="398" y="287"/>
      <point x="381" y="290"/>
      <point x="381" y="301" type="curve"/>
      <point x="394" y="312"/>
      <point x="414" y="322"/>
      <point x="439" y="329" type="curve"/>
      <point x="451" y="344"/>
      <point x="458" y="356"/>
      <point x="469" y="380" type="curve"/>
      <point x="444" y="375"/>
      <point x="416" y="367"/>
      <point x="386" y="352" type="curve"/>
      <point x="352" y="333"/>
      <point x="334" y="310"/>
      <point x="334" y="282" type="curve" smooth="yes"/>
      <point x="334" y="257"/>
      <point x="355" y="247"/>
      <point x="387" y="247" type="curve" smooth="yes"/>
      <point x="408" y="246"/>
      <point x="417" y="245"/>
      <point x="417" y="238" type="curve"/>
      <point x="417" y="224"/>
      <point x="334" y="199"/>
      <point x="281" y="185" type="curve"/>
      <point x="322" y="176"/>
      <point x="363" y="175"/>
      <point x="408" y="182" type="curve" smooth="yes"/>
      <point x="456" y="211"/>
      <point x="475" y="233"/>
      <point x="475" y="259" type="curve" smooth="yes"/>
    </contour>
    <contour>
      <point x="561" y="0" type="move" name="caret_1"/>
    </contour>
    <contour>
      <point x="815" y="-28" type="move" name="bottom_1"/>
    </contour>
    <contour>
      <point x="862" y="581" type="move" name="top_1"/>
    </contour>
    <contour>
      <point x="368" y="393" type="move" name="top_2"/>
    </contour>
    <contour>
      <point x="401" y="-31" type="move" name="bottom_2"/>
    </contour>
  </outline>
</glyph>
<glyph name="uni0644062D0649" format="1">
  <advance width="958"/>
  <outline>
    <contour>
      <point x="884" y="245" type="line" smooth="yes"/>
      <point x="805" y="246"/>
      <point x="763" y="255"/>
      <point x="720" y="268" type="curve" smooth="yes"/>
      <point x="704" y="273"/>
      <point x="684" y="281"/>
      <point x="664" y="287" type="curve"/>
      <point x="664" y="287"/>
      <point x="688" y="304"/>
      <point x="683" y="353" type="curve" smooth="yes"/>
      <point x="681" y="367"/>
      <point x="677" y="387"/>
      <point x="675" y="401" type="curve" smooth="yes"/>
      <point x="667" y="457"/>
      <point x="672" y="471"/>
      <point x="701" y="494" type="curve"/>
      <point x="669" y="521"/>
      <point x="650" y="552"/>
      <point x="631" y="593" type="curve"/>
      <point x="566" y="499" type="line"/>
      <point x="570" y="488"/>
      <point x="591" y="427"/>
      <point x="603" y="375" type="curve" smooth="yes"/>
      <point x="611" y="338"/>
      <point x="612" y="323"/>
      <point x="605" y="314" type="curve" smooth="yes"/>
      <point x="597" y="304"/>
      <point x="583" y="302"/>
      <point x="553" y="300" type="curve" smooth="yes"/>
      <point x="492" y="296"/>
      <point x="465" y="293"/>
      <point x="453" y="284" type="curve" smooth="yes"/>
      <point x="450" y="275"/>
      <point x="438" y="239"/>
      <point x="428" y="202" type="curve"/>
      <point x="461" y="211"/>
      <point x="478" y="214"/>
      <point x="507" y="214" type="curve" smooth="yes"/>
      <point x="553" y="214"/>
      <point x="600" y="207"/>
      <point x="659" y="185" type="curve"/>
      <point x="617" y="171"/>
      <point x="572" y="153"/>
      <point x="543" y="140" type="curve" smooth="yes"/>
      <point x="505" y="122"/>
      <point x="464" y="98"/>
      <point x="452" y="87" type="curve"/>
      <point x="436" y="71"/>
      <point x="426" y="53"/>
      <point x="419" y="1" type="curve"/>
      <point x="443" y="-4"/>
      <point x="458" y="-7"/>
      <point x="485" y="-14" type="curve"/>
      <point x="517" y="-25"/>
      <point x="543" y="-39"/>
      <point x="543" y="-56" type="curve" smooth="yes"/>
      <point x="543" y="-83"/>
      <point x="497" y="-106"/>
      <point x="446" y="-119" type="curve" smooth="yes"/>
      <point x="408" y="-131"/>
      <point x="354" y="-141"/>
      <point x="299" y="-141" type="curve" smooth="yes"/>
      <point x="228" y="-141"/>
      <point x="177" y="-127"/>
      <point x="150" y="-91" type="curve" smooth="yes"/>
      <point x="121" y="-56"/>
      <point x="122" y="-13"/>
      <point x="134" y="44" type="curve"/>
      <point x="99" y="57" type="line"/>
      <point x="80" y="12"/>
      <point x="68" y="-25"/>
      <point x="64" y="-68" type="curve" smooth="yes"/>
      <point x="61" y="-102"/>
      <point x="64" y="-136"/>
      <point x="77" y="-167" type="curve" smooth="yes"/>
      <point x="92" y="-203"/>
      <point x="119" y="-232"/>
      <point x="155" y="-252" type="curve" smooth="yes"/>
      <point x="192" y="-271"/>
      <point x="237" y="-281"/>
      <point x="290" y="-281" type="curve" smooth="yes"/>
      <point x="352" y="-281"/>
      <point x="412" y="-269"/>
      <point x="463" y="-245" type="curve" smooth="yes"/>
      <point x="521" y="-218"/>
      <point x="567" y="-179"/>
      <point x="593" y="-130" type="curve" smooth="yes"/>
      <point x="607" y="-101"/>
      <point x="615" y="-72"/>
      <point x="616" y="-46" type="curve"/>
      <point x="616" y="10"/>
      <point x="577" y="35"/>
      <point x="526" y="53" type="curve"/>
      <point x="541" y="62"/>
      <point x="581" y="85"/>
      <point x="628" y="101" type="curve" smooth="yes"/>
      <point x="694" y="124"/>
      <point x="741" y="138"/>
      <point x="854" y="137" type="curve"/>
      <point x="873" y="171"/>
      <point x="890" y="205"/>
      <point x="905" y="245" type="curve"/>
    </contour>
    <contour>
      <point x="614" y="-256" type="move" name="bottom_1"/>
    </contour>
    <contour>
      <point x="435" y="353" type="move" name="top_2"/>
    </contour>
    <contour>
      <point x="641" y="0" type="move" name="caret_2"/>
    </contour>
    <contour>
      <point x="324" y="0" type="move" name="caret_1"/>
    </contour>
    <contour>
      <point x="297" y="-311" type="move" name="bottom_3"/>
    </contour>
    <contour>
      <point x="545" y="613" type="move" name="top_1"/>
    </contour>
    <contour>
      <point x="779" y="64" type="move" name="bottom_2"/>
    </contour>
    <contour>
      <point x="256" y="62" type="move" name="top_3"/>
    </contour>
  </outline>
</glyph>
<glyph name="uni064406450649" format="1">
  <advance width="880"/>
  <outline>
    <contour>
      <point x="776" y="140"/>
      <point x="747" y="153"/>
      <point x="732" y="163" type="curve" smooth="yes"/>
      <point x="699" y="184"/>
      <point x="688" y="211"/>
      <point x="676" y="289" type="curve" smooth="yes"/>
      <point x="671" y="327"/>
      <point x="666" y="371"/>
      <point x="661" y="399" type="curve" smooth="yes"/>
      <point x="654" y="450"/>
      <point x="679" y="468"/>
      <point x="695" y="480" type="curve"/>
      <point x="657" y="520"/>
      <point x="635" y="548"/>
      <point x="617" y="595" type="curve"/>
      <point x="547" y="493" type="line"/>
      <point x="553" y="479"/>
      <point x="574" y="419"/>
      <point x="583" y="365" type="curve" smooth="yes"/>
      <point x="595" y="297"/>
      <point x="615" y="166"/>
      <point x="639" y="125" type="curve"/>
      <point x="550" y="130"/>
      <point x="487" y="114"/>
      <point x="452" y="86" type="curve"/>
      <point x="436" y="70"/>
      <point x="426" y="53"/>
      <point x="419" y="0" type="curve"/>
      <point x="443" y="-4"/>
      <point x="458" y="-8"/>
      <point x="485" y="-15" type="curve"/>
      <point x="517" y="-26"/>
      <point x="543" y="-40"/>
      <point x="543" y="-57" type="curve" smooth="yes"/>
      <point x="543" y="-84"/>
      <point x="497" y="-106"/>
      <point x="446" y="-120" type="curve" smooth="yes"/>
      <point x="408" y="-132"/>
      <point x="354" y="-142"/>
      <point x="299" y="-142" type="curve" smooth="yes"/>
      <point x="228" y="-142"/>
      <point x="177" y="-127"/>
      <point x="150" y="-92" type="curve" smooth="yes"/>
      <point x="121" y="-57"/>
      <point x="121" y="6"/>
      <point x="134" y="64" type="curve"/>
      <point x="99" y="76" type="line"/>
      <point x="80" y="31"/>
      <point x="68" y="-26"/>
      <point x="64" y="-69" type="curve" smooth="yes"/>
      <point x="61" y="-103"/>
      <point x="64" y="-136"/>
      <point x="77" y="-168" type="curve" smooth="yes"/>
      <point x="92" y="-204"/>
      <point x="119" y="-232"/>
      <point x="155" y="-252" type="curve" smooth="yes"/>
      <point x="192" y="-271"/>
      <point x="237" y="-282"/>
      <point x="290" y="-282" type="curve" smooth="yes"/>
      <point x="352" y="-282"/>
      <point x="412" y="-269"/>
      <point x="463" y="-246" type="curve" smooth="yes"/>
      <point x="521" y="-219"/>
      <point x="567" y="-180"/>
      <point x="593" y="-130" type="curve" smooth="yes"/>
      <point x="607" y="-101"/>
      <point x="615" y="-72"/>
      <point x="616" y="-47" type="curve"/>
      <point x="616" y="-5"/>
      <point x="595" y="21"/>
      <point x="559" y="39" type="curve"/>
      <point x="610" y="39"/>
      <point x="714" y="20"/>
      <point x="781" y="-22" type="curve"/>
      <point x="802" y="22"/>
      <point x="809" y="88"/>
      <point x="805" y="133" type="curve"/>
    </contour>
    <contour>
      <point x="517" y="-322" type="move" name="bottom_1"/>
    </contour>
    <contour>
      <point x="472" y="595" type="move" name="top_2"/>
    </contour>
    <contour>
      <point x="603" y="0" type="move" name="caret_2"/>
    </contour>
    <contour>
      <point x="302" y="0" type="move" name="caret_1"/>
    </contour>
    <contour>
      <point x="268" y="-312" type="move" name="bottom_3"/>
    </contour>
    <contour>
      <point x="756" y="595" type="move" name="top_1"/>
    </contour>
    <contour>
      <point x="722" y="-88" type="move" name="bottom_2"/>
    </contour>
    <contour>
      <point x="276" y="37" type="move" name="top_3"/>
    </contour>
  </outline>
</glyph>
<glyph name="uni066E0631" format="1">
  <advance width="550"/>
  <outline>
    <contour>
      <point x="368" y="293"/>
      <point x="306" y="267"/>
      <point x="286" y="256" type="curve" smooth="yes"/>
      <point x="245" y="234"/>
      <point x="216" y="196"/>
      <point x="206" y="150" type="curve" smooth="yes"/>
      <point x="197" y="123"/>
      <point x="193" y="90"/>
      <point x="196" y="55" type="curve" smooth="yes"/>
      <point x="197" y="31"/>
      <point x="197" y="7"/>
      <point x="187" y="-23" type="curve" smooth="yes"/>
      <point x="179" y="-72"/>
      <point x="151" y="-103"/>
      <point x="58" y="-157" type="curve" smooth="yes"/>
      <point x="6" y="-188"/>
      <point x="-68" y="-226"/>
      <point x="-80" y="-233" type="curve"/>
      <point x="-57" y="-266" type="line"/>
      <point x="-33" y="-258"/>
      <point x="-5" y="-256"/>
      <point x="14" y="-256" type="curve" smooth="yes"/>
      <point x="35" y="-256"/>
      <point x="50" y="-259"/>
      <point x="74" y="-259" type="curve" smooth="yes"/>
      <point x="116" y="-259"/>
      <point x="145" y="-249"/>
      <point x="176" y="-220" type="curve" smooth="yes"/>
      <point x="200" y="-198"/>
      <point x="221" y="-168"/>
      <point x="241" y="-123" type="curve" smooth="yes"/>
      <point x="261" y="-78"/>
      <point x="270" y="-36"/>
      <point x="272" y="10" type="curve" smooth="yes"/>
      <point x="274" y="41"/>
      <point x="272" y="63"/>
      <point x="264" y="110" type="curve"/>
      <point x="283" y="126"/>
      <point x="357" y="153"/>
      <point x="434" y="153" type="curve" smooth="yes"/>
      <point x="442" y="153"/>
      <point x="450" y="153"/>
      <point x="458" y="152" type="curve"/>
      <point x="483" y="210"/>
      <point x="491" y="256"/>
      <point x="496" y="290" type="curve"/>
      <point x="482" y="292"/>
      <point x="468" y="293"/>
      <point x="452" y="293" type="curve" smooth="yes"/>
    </contour>
    <contour>
      <point x="295" y="0" type="move" name="caret_1"/>
    </contour>
    <contour>
      <point x="395" y="-18" type="move" name="bottom_1"/>
    </contour>
    <contour>
      <point x="399" y="337" type="move" name="top_1"/>
    </contour>
    <contour>
      <point x="157" y="271" type="move" name="top_2"/>
    </contour>
    <contour>
      <point x="44" y="-288" type="move" name="bottom_2"/>
    </contour>
  </outline>
</glyph>
<glyph name="uni066E0645" format="1">
  <advance width="473"/>
  <outline>
    <contour>
      <point x="416" y="115"/>
      <point x="420" y="136"/>
      <point x="420" y="154" type="curve"/>
      <point x="419" y="192"/>
      <point x="396" y="210"/>
      <point x="353" y="209" type="curve" smooth="yes"/>
      <point x="299" y="208"/>
      <point x="250" y="182"/>
      <point x="213" y="142" type="curve" smooth="yes"/>
      <point x="184" y="111"/>
      <point x="159" y="74"/>
      <point x="151" y="30" type="curve"/>
      <point x="115" y="9"/>
      <point x="93" y="-10"/>
      <point x="73" y="-43" type="curve" smooth="yes"/>
      <point x="55" y="-73"/>
      <point x="45" y="-113"/>
      <point x="51" y="-160" type="curve" smooth="yes"/>
      <point x="82" y="-348"/>
      <point x="92" y="-434"/>
      <point x="97" y="-498" type="curve"/>
      <point x="149" y="-478" type="line"/>
      <point x="149" y="-449"/>
      <point x="143" y="-337"/>
      <point x="135" y="-253" type="curve" smooth="yes"/>
      <point x="130" y="-197"/>
      <point x="124" y="-146"/>
      <point x="116" y="-92" type="curve"/>
      <point x="133" y="-77"/>
      <point x="168" y="-64"/>
      <point x="222" y="-64" type="curve" smooth="yes"/>
      <point x="260" y="-64"/>
      <point x="285" y="-68"/>
      <point x="318" y="-79" type="curve"/>
      <point x="341" y="-49"/>
      <point x="355" y="-24"/>
      <point x="366" y="14" type="curve"/>
      <point x="343" y="40"/>
      <point x="288" y="70"/>
      <point x="240" y="83" type="curve"/>
      <point x="252" y="92"/>
      <point x="264" y="101"/>
      <point x="279" y="108" type="curve" smooth="yes"/>
      <point x="295" y="117"/>
      <point x="313" y="124"/>
      <point x="331" y="127" type="curve" smooth="yes"/>
      <point x="365" y="132"/>
      <point x="384" y="119"/>
      <point x="379" y="100" type="curve"/>
      <point x="404" y="100" type="line"/>
    </contour>
    <contour>
      <point x="237" y="0" type="move" name="caret_1"/>
    </contour>
    <contour>
      <point x="307" y="-109" type="move" name="bottom_1"/>
    </contour>
    <contour>
      <point x="323" y="240" type="move" name="top_1"/>
    </contour>
    <contour>
      <point x="89" y="125" type="move" name="top_2"/>
    </contour>
    <contour>
      <point x="123" y="-520" type="move" name="bottom_2"/>
    </contour>
  </outline>
</glyph>
<glyph name="uni06A10649.fina" format="1">
  <advance width="867"/>
  <outline>
    <contour>
      <point x="723" y="125" type="line"/>
      <point x="745" y="148"/>
      <point x="755" y="182"/>
      <point x="754" y="216" type="curve" smooth="yes"/>
      <point x="753" y="270"/>
      <point x="722" y="322"/>
      <point x="669" y="322" type="curve" smooth="yes"/>
      <point x="646" y="322"/>
      <point x="623" y="313"/>
      <point x="603" y="297" type="curve" smooth="yes"/>
      <point x="569" y="271"/>
      <point x="543" y="227"/>
      <point x="539" y="188" type="curve" smooth="yes"/>
      <point x="534" y="150"/>
      <point x="539" y="116"/>
      <point x="553" y="89" type="curve"/>
      <point x="539" y="81"/>
      <point x="522" y="71"/>
      <point x="506" y="62" type="curve" smooth="yes"/>
      <point x="480" y="47"/>
      <point x="460" y="35"/>
      <point x="452" y="28" type="curve"/>
      <point x="436" y="12"/>
      <point x="426" y="-6"/>
      <point x="419" y="-58" type="curve"/>
      <point x="443" y="-63"/>
      <point x="457" y="-66"/>
      <point x="484" y="-73" type="curve"/>
      <point x="516" y="-84"/>
      <point x="542" y="-98"/>
      <point x="542" y="-115" type="curve" smooth="yes"/>
      <point x="542" y="-135"/>
      <point x="504" y="-159"/>
      <point x="448" y="-176" type="curve" smooth="yes"/>
      <point x="415" y="-189"/>
      <point x="365" y="-200"/>
      <point x="306" y="-200" type="curve" smooth="yes"/>
      <point x="235" y="-200"/>
      <point x="184" y="-186"/>
      <point x="156" y="-150" type="curve" smooth="yes"/>
      <point x="128" y="-115"/>
      <point x="127" y="-63"/>
      <point x="141" y="-5" type="curve"/>
      <point x="106" y="8" type="line"/>
      <point x="87" y="-36"/>
      <point x="75" y="-77"/>
      <point x="71" y="-122" type="curve" smooth="yes"/>
      <point x="67" y="-157"/>
      <point x="71" y="-194"/>
      <point x="84" y="-226" type="curve" smooth="yes"/>
      <point x="99" y="-262"/>
      <point x="125" y="-291"/>
      <point x="162" y="-311" type="curve" smooth="yes"/>
      <point x="198" y="-330"/>
      <point x="244" y="-340"/>
      <point x="297" y="-340" type="curve" smooth="yes"/>
      <point x="358" y="-340"/>
      <point x="422" y="-324"/>
      <point x="477" y="-295" type="curve" smooth="yes"/>
      <point x="530" y="-267"/>
      <point x="571" y="-229"/>
      <point x="593" y="-189" type="curve" smooth="yes"/>
      <point x="607" y="-160"/>
      <point x="615" y="-131"/>
      <point x="616" y="-105" type="curve"/>
      <point x="616" y="-49"/>
      <point x="579" y="-25"/>
      <point x="527" y="-7" type="curve"/>
      <point x="552" y="7"/>
      <point x="578" y="22"/>
      <point x="603" y="36" type="curve"/>
      <point x="636" y="13"/>
      <point x="681" y="0"/>
      <point x="735" y="0" type="curve" smooth="yes"/>
      <point x="867" y="0" type="line"/>
      <point x="867" y="125" type="line"/>
    </contour>
    <contour>
      <point x="707" y="169"/>
      <point x="690" y="159"/>
      <point x="671" y="152" type="curve"/>
      <point x="659" y="147"/>
      <point x="645" y="144"/>
      <point x="636" y="143" type="curve"/>
      <point x="611" y="138"/>
      <point x="597" y="151"/>
      <point x="591" y="165" type="curve"/>
      <point x="584" y="179"/>
      <point x="584" y="192"/>
      <point x="584" y="192" type="curve" smooth="yes"/>
      <point x="584" y="192"/>
      <point x="593" y="207"/>
      <point x="607" y="220" type="curve" smooth="yes"/>
      <point x="618" y="230"/>
      <point x="631" y="237"/>
      <point x="645" y="236" type="curve"/>
      <point x="658" y="234"/>
      <point x="672" y="227"/>
      <point x="683" y="216" type="curve"/>
      <point x="697" y="203"/>
      <point x="707" y="189"/>
      <point x="707" y="180" type="curve" smooth="yes"/>
    </contour>
    <contour>
      <point x="424" y="0" type="move" name="caret_1"/>
    </contour>
    <contour>
      <point x="633" y="-253" type="move" name="bottom_1"/>
    </contour>
    <contour>
      <point x="635" y="354" type="move" name="top_1"/>
    </contour>
    <contour>
      <point x="264" y="-18" type="move" name="top_2"/>
    </contour>
    <contour>
      <point x="307" y="-370" type="move" name="bottom_2"/>
    </contour>
  </outline>
</glyph>
<glyph name="uni06A10649" format="1">
  <advance width="675"/>
  <outline>
    <contour>
      <point x="548" y="387"/>
      <point x="453" y="387" type="curve" smooth="yes"/>
      <point x="414" y="387"/>
      <point x="387" y="360"/>
      <point x="370" y="332" type="curve" smooth="yes"/>
      <point x="350" y="297"/>
      <point x="339" y="254"/>
      <point x="339" y="220" type="curve" smooth="yes"/>
      <point x="339" y="183"/>
      <point x="351" y="160"/>
      <point x="369" y="145" type="curve"/>
      <point x="386" y="129"/>
      <point x="411" y="120"/>
      <point x="446" y="120" type="curve" smooth="yes"/>
      <point x="465" y="120"/>
      <point x="492" y="123"/>
      <point x="511" y="140" type="curve"/>
      <point x="513" y="109"/>
      <point x="497" y="90"/>
      <point x="477" y="78" type="curve" smooth="yes"/>
      <point x="456" y="66"/>
      <point x="428" y="61"/>
      <point x="398" y="61" type="curve"/>
      <point x="393" y="39"/>
      <point x="392" y="24"/>
      <point x="389" y="-5" type="curve"/>
      <point x="423" y="-8"/>
      <point x="459" y="-12"/>
      <point x="489" y="-20" type="curve" smooth="yes"/>
      <point x="529" y="-31"/>
      <point x="547" y="-42"/>
      <point x="547" y="-58" type="curve"/>
      <point x="547" y="-78"/>
      <point x="514" y="-94"/>
      <point x="474" y="-111" type="curve" smooth="yes"/>
      <point x="438" y="-125"/>
      <point x="385" y="-141"/>
      <point x="299" y="-141" type="curve" smooth="yes"/>
      <point x="225" y="-141"/>
      <point x="178" y="-124"/>
      <point x="150" y="-91" type="curve" smooth="yes"/>
      <point x="125" y="-61"/>
      <point x="123" y="-14"/>
      <point x="135" y="54" type="curve"/>
      <point x="100" y="67" type="line"/>
      <point x="84" y="29"/>
      <point x="72" y="-16"/>
      <point x="67" y="-58" type="curve" smooth="yes"/>
      <point x="61" y="-98"/>
      <point x="64" y="-133"/>
      <point x="78" y="-167" type="curve" smooth="yes"/>
      <point x="93" y="-203"/>
      <point x="118" y="-230"/>
      <point x="156" y="-251" type="curve" smooth="yes"/>
      <point x="194" y="-271"/>
      <point x="237" y="-281"/>
      <point x="288" y="-281" type="curve" smooth="yes"/>
      <point x="359" y="-281"/>
      <point x="429" y="-265"/>
      <point x="485" y="-236" type="curve" smooth="yes"/>
      <point x="531" y="-212"/>
      <point x="571" y="-177"/>
      <point x="594" y="-139" type="curve" smooth="yes"/>
      <point x="613" y="-109"/>
      <point x="622" y="-77"/>
      <point x="622" y="-51" type="curve" smooth="yes"/>
      <point x="622" y="0"/>
      <point x="591" y="36"/>
      <point x="542" y="48" type="curve"/>
      <point x="556" y="64"/>
      <point x="565" y="87"/>
      <point x="570" y="116" type="curve" smooth="yes"/>
      <point x="592" y="228"/>
    </contour>
    <contour>
      <point x="487" y="224"/>
      <point x="472" y="215"/>
      <point x="443" y="215" type="curve" smooth="yes"/>
      <point x="394" y="215"/>
      <point x="387" y="240"/>
      <point x="387" y="254" type="curve" smooth="yes"/>
      <point x="387" y="276"/>
      <point x="403" y="303"/>
      <point x="436" y="303" type="curve" smooth="yes"/>
      <point x="478" y="303"/>
      <point x="493" y="254"/>
      <point x="497" y="233" type="curve"/>
    </contour>
    <contour>
      <point x="344" y="0" type="move" name="caret_1"/>
    </contour>
    <contour>
      <point x="493" y="-310" type="move" name="bottom_1"/>
    </contour>
    <contour>
      <point x="453" y="417" type="move" name="top_1"/>
    </contour>
    <contour>
      <point x="193" y="70" type="move" name="top_2"/>
    </contour>
    <contour>
      <point x="243" y="-311" type="move" name="bottom_2"/>
    </contour>
  </outline>
</glyph>
<glyph name="uniFE8E.short" format="1">
  <advance width="280"/>
  <outline>
    <contour>
      <point x="211" y="125" type="line" smooth="yes"/>
      <point x="188" y="125"/>
      <point x="171" y="131"/>
      <point x="160" y="143" type="curve" smooth="yes"/>
      <point x="149" y="154"/>
      <point x="145" y="171"/>
      <point x="144" y="192" type="curve" smooth="yes"/>
      <point x="133" y="547" type="line"/>
      <point x="103" y="547" type="line"/>
      <point x="81" y="521"/>
      <point x="64" y="498"/>
      <point x="43" y="468" type="curve"/>
      <point x="54" y="387"/>
      <point x="61" y="252"/>
      <point x="61" y="159" type="curve" smooth="yes"/>
      <point x="62" y="115"/>
      <point x="73" y="74"/>
      <point x="96" y="43" type="curve" smooth="yes"/>
      <point x="118" y="15"/>
      <point x="151" y="0"/>
      <point x="193" y="0" type="curve" smooth="yes"/>
      <point x="280" y="0" type="line"/>
      <point x="280" y="125" type="line"/>
    </contour>
    <contour>
      <point x="113" y="682" type="move" name="top"/>
    </contour>
    <contour>
      <point x="87" y="-31" type="move" name="bottom"/>
    </contour>
  </outline>
</glyph>
